<svg width="44" height="45" viewBox="0 0 44 45" fill="none" xmlns="http://www.w3.org/2000/svg">
<path d="M40.8556 26.8899L40.8507 26.8664L40.8452 26.8422L38.9296 18.6964L38.9219 18.6662L38.9143 18.636C37.7098 14.1399 33.6176 11 28.9624 11H16.0379C11.3827 11 7.29051 14.1399 6.08605 18.636L6.07781 18.6662L6.07066 18.6964L4.15511 26.8422L4.14962 26.8657L4.14471 26.8893C3.44019 30.2446 5.36788 33.5736 8.62778 34.6339L8.7424 34.6706C9.41013 34.8883 10.1075 34.999 10.8109 34.999C13.1717 34.999 15.3729 33.7413 16.5747 31.7117L18.2047 29.3022L18.2453 29.2418L18.2821 29.1788C18.3396 29.0785 18.4465 29.016 18.5611 29.016H26.4395C26.5541 29.016 26.661 29.0785 26.7186 29.1788L26.7553 29.2418L26.7959 29.3022L28.4258 31.7117C29.6276 33.7413 31.8288 34.999 34.1902 34.999C34.8936 34.999 35.591 34.8883 36.2621 34.6695L36.3728 34.6339C39.632 33.5742 41.5591 30.2447 40.8556 26.8899ZM35.7476 32.7118L35.6363 32.748C35.1588 32.9037 34.6713 32.9782 34.19 32.9782C32.5534 32.9782 30.9898 32.1147 30.1367 30.6345L28.47 28.1701C28.0517 27.4436 27.277 26.9952 26.4393 26.9952H18.5609C17.7231 26.9952 16.9485 27.4437 16.5301 28.1701L14.8634 30.6345C14.0104 32.1147 12.4473 32.9782 10.8107 32.9782C10.3294 32.9782 9.84199 32.9037 9.36446 32.748L9.25259 32.7118C6.98121 31.9733 5.63193 29.6416 6.12269 27.305L8.03831 19.159C9.00812 15.5384 12.2894 13.0208 16.0378 13.0208H28.9623C32.7107 13.0208 35.9921 15.5384 36.9619 19.159L38.8775 27.305C39.3677 29.6416 38.019 31.9733 35.7476 32.7118Z" fill="white"/>
<path d="M15.3786 16.9336H12.9547V19.7171H10.1707V22.1399H12.9547V24.9244H15.3786V22.1399H18.1626V19.7171H15.3786V16.9336Z" fill="white"/>
<path d="M30.429 19.404C31.2722 19.404 31.9547 18.7214 31.9547 17.8793C31.9547 17.0361 31.2722 16.3535 30.429 16.3535C29.5868 16.3535 28.9043 17.0361 28.9043 17.8793C28.9042 18.7214 29.5868 19.404 30.429 19.404Z" fill="white"/>
<path d="M27.3785 19.4041C26.5364 19.4041 25.8533 20.0872 25.8533 20.9287C25.8533 21.772 26.5364 22.4551 27.3785 22.4551C28.2212 22.4551 28.9038 21.772 28.9038 20.9287C28.9038 20.0872 28.2212 19.4041 27.3785 19.4041Z" fill="white"/>
<path d="M30.429 22.4546C29.5868 22.4546 28.9043 23.1371 28.9043 23.9804C28.9043 24.8225 29.5868 25.5051 30.429 25.5051C31.2722 25.5051 31.9547 24.8225 31.9547 23.9804C31.9547 23.1371 31.2721 22.4546 30.429 22.4546Z" fill="white"/>
<path d="M33.4796 19.4041C32.6375 19.4041 31.9548 20.0872 31.9548 20.9287C31.9548 21.772 32.6375 22.4551 33.4796 22.4551C34.3222 22.4551 35.0053 21.772 35.0053 20.9287C35.0053 20.0872 34.3222 19.4041 33.4796 19.4041Z" fill="white"/>
<path d="M12.5 7.75C8.79002 7.75 6.70998 7.75 3 7.75" stroke="white" stroke-width="2" stroke-linecap="round"/>
<path d="M7.75 3C7.75 6.70998 7.75 8.79002 7.75 12.5" stroke="white" stroke-width="2" stroke-linecap="round"/>
</svg>
