<svg width="735" height="583" viewBox="0 0 735 583" fill="none" xmlns="http://www.w3.org/2000/svg">
<path d="M912.516 -217.378L906.714 -207.788L863.538 -237.869L869.409 -247.303M912.516 -217.378L869.409 -247.303M912.516 -217.378L925.01 -238.031M869.409 -247.303L882.621 -268.535M925.01 -238.031L922.319 -243.792L929.921 -246.144M925.01 -238.031L929.921 -246.144M882.621 -268.535L890.359 -272.15L888.007 -277.185M882.621 -268.535L888.007 -277.185M929.921 -246.144L938.622 -260.528M888.007 -277.185L895.834 -289.768M938.622 -260.528L941.521 -265.323L934.059 -270.811M938.622 -260.528L931.017 -265.798L934.059 -270.811M934.059 -270.811L907.211 -290.572M907.211 -290.572L899.749 -296.061L895.834 -289.768M907.211 -290.572L905.255 -284.273L895.834 -289.768M806.784 -159.315L783.424 -123.276L711.887 -173.723L734.918 -208.782M806.784 -159.315L734.918 -208.782M806.784 -159.315L813.297 -169.362M734.918 -208.782L752.937 -236.221M813.297 -169.362L823.255 -184.721M813.297 -169.362L788.154 -186.503L798.088 -203.318M752.937 -236.221L789.243 -209.857M752.937 -236.221L762.413 -250.641M823.255 -184.721L809.671 -194.76M823.255 -184.721L835.149 -203.074M798.088 -203.318L789.243 -209.857M798.088 -203.318L803.879 -199.041M789.243 -209.857L812.102 -244.836M762.413 -250.641L769.039 -245.772L773.855 -255.197L767.958 -259.087M762.413 -250.641L767.958 -259.087M771.957 -171.758L793.509 -156.702L780.732 -136.378L723.137 -178.978L735.01 -197.574L755.359 -183.358M771.957 -171.758L768.374 -166.496L752.364 -178.759L755.359 -183.358M771.957 -171.758L755.359 -183.358M809.671 -194.76L802.132 -182.265L795.156 -186.187L803.879 -199.041M809.671 -194.76L806.776 -196.899M835.149 -203.074L806.776 -196.899M835.149 -203.074L838.489 -208.221M803.879 -199.041L806.776 -196.899M838.489 -208.221L845.163 -218.519L836.641 -225.306M838.489 -208.221L836.641 -225.306M812.102 -244.836L836.641 -225.306M812.102 -244.836L785.492 -266.019M785.492 -266.019L776.971 -272.806L767.958 -259.087M785.492 -266.019L804.798 -249.909L801.955 -244.994L782.477 -261.018L785.492 -266.019ZM664.285 -227.944L655.265 -210.569L638.415 -222.44M664.285 -227.944L668.794 -236.63L640.87 -254.801M664.285 -227.944L638.415 -222.44M638.415 -222.44L632.287 -226.757M640.87 -254.801L631.868 -260.658L626.404 -252.185M640.87 -254.801L636.657 -246.741L626.404 -252.185M632.287 -226.757L616.967 -237.544L620.94 -243.711M632.287 -226.757L635.847 -233.801L620.94 -243.711M626.404 -252.185L620.94 -243.711M630.902 -438.561L653.252 -423.795L671.775 -457.653L663.99 -463.019M630.902 -438.561L620.951 -423.112L596.532 -442.31L604.47 -469.42L612.87 -466.141L620.005 -480.275L631.278 -485.541L663.99 -463.019M630.902 -438.561L634.5 -449.244L649.168 -439.891C653.208 -447.176 661.817 -462.004 663.99 -463.019M394.657 -288.415L388.942 -279.205L370.695 -291.383M394.657 -288.415L377.076 -300.576L374.967 -297.541M394.657 -288.415L403.459 -302.597M370.695 -291.383L350.938 -304.566M370.695 -291.383L374.967 -297.541M374.967 -297.541L362.101 -309.781L350.938 -304.566M403.459 -302.597L407.037 -308.358L384.163 -323.69M403.459 -302.597L380.633 -318.437L384.163 -323.69M350.938 -304.566L340.384 -311.609L358.128 -341.139L384.163 -323.69M635.01 -493.072C633.33 -493.726 645.09 -497.179 651.18 -498.821L653.94 -492.912L638.462 -485.682C638.012 -487.873 636.688 -492.412 635.01 -493.072ZM635.01 -493.072L592.8 -473.355L582.738 -439.849L576.138 -442.974M576.138 -442.974L556.828 -443.946M576.138 -442.974L576.526 -453.148L582.339 -481.07L656.91 -515.903M576.138 -442.974L570.925 -454.135M556.828 -443.946L478.246 -436.045M556.828 -443.946L558.287 -451.83M656.91 -515.903L663.177 -509.828L639.974 -500.789L641.354 -497.835M656.91 -515.903L648.521 -519.182M570.925 -454.135L558.287 -451.83M570.925 -454.135L573.95 -484.349L648.521 -519.182M107.538 -172.871C102.926 -180.446 98.7012 -190.907 98.4507 -201.032M107.538 -172.871C114.567 -177.436 122.94 -183.314 130.325 -193.813M107.538 -172.871C106.967 -171.162 68.7011 -134.927 49.6405 -117.021L55.1675 -9.78806L78.9017 4.33215L65.125 66.5747L37.7808 66.7465L2.12903 148.209L57.6452 226.694L86.3694 229.476L119.48 304.026L103.287 313.389L116.535 418.816L206.108 441.784L231.435 429.954L257.959 446.37M98.4507 -201.032C103.61 -198.099 116.468 -194.118 126.682 -201.613M98.4507 -201.032C98.1483 -213.348 103.733 -225.176 121.658 -230.714M130.325 -193.813L126.682 -201.613M130.325 -193.813C131.592 -195.617 132.831 -197.551 134.031 -199.648M130.325 -193.813L157.398 -176.359M257.959 446.37L274.312 415.329M257.959 446.37L264.317 434.296M257.959 446.37L265.63 451.789M126.682 -201.613C129.574 -213.766 130.98 -214.422 121.658 -230.714M126.682 -201.613L134.031 -199.648M121.658 -230.714C128.051 -232.687 136.016 -233.863 145.848 -233.973M134.031 -199.648C138.914 -208.173 143.119 -219.232 145.848 -233.973M134.031 -199.648C140.464 -195.505 152.095 -187.722 160.394 -181.357M157.398 -176.359L167.112 -170.094M157.398 -176.359L139.583 -144.634L110.196 -152.51L62.8632 -103.394L69.2363 -16.3598M274.312 415.329L218.48 380.198L193.765 404.344L146.879 392.041L136.126 328.655L159.381 312.389L104.157 194.166L81.0075 195.977L44.1831 150.168L60.6672 101.062L91.5413 97.4417L116.226 -18.5054L90.3433 -26.2191L83.0911 -89.4403L119.142 -129.683L147.814 -119.673L210.251 -220.85L187.976 -242.85L205.924 -299.838L253.759 -322.183L275.396 -308.887L377.579 -380.021L370.832 -416.476L400.539 -451.956L450.264 -444.578L458.548 -426.844M274.312 415.329L270.536 422.491M274.312 415.329L281.984 420.747M264.317 434.296L270.536 422.491M264.317 434.296L221.801 405.653L198.515 425.528L129.227 409.288L114.434 322.583L136.286 306.977L94.8657 218.305L68.2368 216.343L17.5289 151.817L45.3745 83.0031L76.9424 80.8583L94.3798 -2.89783M265.63 451.789L290.029 470.997L283.578 490.211L350.323 567.049L438.836 543.707L447.383 525.314L520.282 527.266L523.603 552.721L620.848 581.108L678.083 520.164L671.976 492.411L743.763 455.28L754.142 473.834L837.741 450.989L884.515 382.33L872.119 352.117L886.736 335.714M265.63 451.789L273.806 436.266M145.848 -233.973L181.603 -329.885L292.809 -389.032L380.467 -487.585L388.91 -491.53L472.247 -478.249M472.247 -478.249L478.406 -457.723C487.528 -458.987 506.619 -461.9 509.995 -463.477M472.247 -478.249C487.778 -493.308 527.707 -517.117 563.138 -491.904M160.394 -181.357C163.941 -178.637 166.877 -176.174 168.547 -174.363M160.394 -181.357L186.065 -219.85M509.995 -463.477C510.023 -467.093 518.439 -467.421 521.253 -468.736M509.995 -463.477C509.974 -460.59 512.235 -450.123 513.369 -445.249M563.138 -491.904L564.232 -497.813L633.815 -521.315L648.521 -519.182M563.138 -491.904L558.394 -466.281L521.253 -468.736M168.547 -174.363L167.112 -170.094M168.547 -174.363L169.956 -175.022L193.367 -212.964M186.065 -219.85L193.367 -212.964M186.065 -219.85L167.837 -237.041M167.112 -170.094L142.292 -131.494L115.03 -142.162L71.944 -98.6339L80.4944 -21.6186M69.2363 -16.3598L80.4944 -21.6186M69.2363 -16.3598L94.3798 -2.89783M193.367 -212.964L195.517 -219.366L173.933 -239.889M80.4944 -21.6186L105.661 -11.7712M173.933 -239.889L167.837 -237.041M173.933 -239.889L197.558 -306.732L256.656 -334.337L276.858 -316.773L367.119 -387.735M105.661 -11.7712L87.3994 88.5748L53.0208 92.0323L29.4732 148.037L74.6104 207.967L101.955 207.796L149.585 309.763L125.614 328.162L137.696 401.733L199.288 416.169L221.879 394.815L270.536 422.491M105.661 -11.7712L94.3798 -2.89783M458.548 -426.844L478.246 -436.045M458.548 -426.844L462.85 -439.655M478.246 -436.045L475.484 -441.958M462.85 -439.655L472.325 -441.38M462.85 -439.655L454.537 -453.776L398.521 -463.614L390.082 -459.672L359.63 -418.446M281.984 420.747L333.649 450.622L324.967 487.082L363.224 528.618L410.295 515.632L422.425 486.564L550.655 496.878L560.237 528.406L604.279 545.636L642.43 506.213L633.534 476.164L748.273 413.566L769.139 436.224L820.406 424.882L845.995 376.921L830.094 346.545L859.771 314.679M281.984 420.747L277.441 429.368M475.484 -441.958L513.369 -445.249M475.484 -441.958L472.325 -441.38M472.325 -441.38L462.316 -462.808L392.999 -475.436L387.37 -472.806L348.427 -420.411M359.63 -418.446L348.427 -420.411M359.63 -418.446L367.119 -387.735M558.287 -451.83L522.996 -446.661L521.253 -468.736M558.287 -451.83L513.369 -445.249M348.427 -420.411L355.942 -393.316M367.119 -387.735L355.942 -393.316M355.942 -393.316L274.89 -335.657L257.449 -347.309L189.912 -315.762L162.731 -241.859L167.837 -237.041M859.771 314.679L864.737 309.658M859.771 314.679C861.348 316.033 863.227 317.63 865.241 319.326M277.441 429.368L273.806 436.266M277.441 429.368L322.391 455.88L312.331 489.38L356.856 536.995L415.153 522.365L427.257 496.908L543.592 503.776L550.388 533.007L609.113 555.984L654.325 509.658L647.501 484.045L743.972 426.377L765.556 446.9L824.548 433.749L856.481 381.025L840.603 347.035L865.241 319.326M886.736 335.714L891.364 330.526M886.736 335.714C886.186 336.331 878.65 330.429 871.064 324.174M273.806 436.266L308.322 462.452L302.291 490.471L356.774 547.835L423.489 532.872L433.498 506.594L537.91 513.633L541.919 540.561L614.635 567.806L665.501 515.239L659.391 487.488L743.866 440.831L761.948 461.186L830.07 445.57L866.304 380.035L850.429 346.049L871.064 324.174M891.364 330.526L921.601 296.599L941.858 306.94L1040.38 257.322L1051.71 145.813L1030.07 132.513L1066.6 27.239L1092.53 27.7255L1133.92 -70.8172L1071.98 -133.699L1043.23 -132.871L1019.73 -179.501L1024.14 -206.766L1005.55 -253.893L1015.03 -207.912L1004.33 -183.111L1036.14 -122.358L1069.11 -125.159L1125.48 -66.8732L1087.7 17.3815L1059.66 16.076L1011.81 137.445L1034.82 153.699L1028.53 246.649L941.274 291.008L912.628 277.388L877.692 319.81M891.364 330.526L877.692 319.81M891.364 330.526L864.737 309.658M871.064 324.174C869.086 322.545 867.103 320.894 865.241 319.326M864.737 309.658L869.773 313.605M864.737 309.658L864.02 309.095L908.591 254.066L938.615 270.647L1008.31 232.695L1013.03 162.078L989.293 147.961L1042.97 -1.33008L1077.35 -4.78387L1104.37 -57.0139L1059.16 -106.108L1025.44 -97.5563L983.331 -187.706L995.412 -209.549L986.622 -254.052L995.394 -255.449M877.692 319.81L869.773 313.605M869.773 313.605L910.61 265.729L939.943 280.828L1017.38 237.457L1022.16 159.614L999.142 143.361L1050.61 7.70312L1082.18 5.56018L1115.63 -62.2726L1063.43 -115.302L1028.33 -109.709L993.102 -181.468L1003.11 -207.747L995.394 -255.449M995.394 -255.449L1004.17 -256.847M690.75 47.6812L711.743 62.498L714.643 59.8918L803.386 118.371L817.53 95.393L708.789 21.2819L690.75 47.6812ZM690.75 47.6812L661.114 93.6975L682.946 108.843L712.425 63.3152L690.75 47.6812ZM348.516 -103.168L312.199 -125.685L291.5 -92.6857L328.506 -68.6916M348.516 -103.168L334.221 -78.5414M348.516 -103.168L354.695 -98.8736M328.506 -68.6916L334.221 -78.5414M328.506 -68.6916L350.842 -54M334.221 -78.5414L357.25 -62.3752M354.695 -98.8736L391.783 -73.1238M354.695 -98.8736L347.687 -90.2134L370.026 -75.5236L368.578 -71.2591L385.342 -61.1409M350.842 -54L366.196 -43.2231M350.842 -54L357.25 -62.3752M357.25 -62.3752L371.915 -53.0746M391.783 -73.1238L451.818 -32.9635M391.783 -73.1238L385.342 -61.1409M385.342 -61.1409L378.902 -49.158L371.915 -53.0746M366.196 -43.2231L371.915 -53.0746M366.196 -43.2231L388.536 -28.5331M451.818 -32.9635L474.158 -18.2736L469.377 -10.6585M451.818 -32.9635L447.05 -24.7548M469.377 -10.6585L453.455 14.7278L431.803 1.51062M469.377 -10.6585L447.05 -24.7548M447.05 -24.7548L431.803 1.51062M431.803 1.51062L420.87 -5.94464M420.87 -5.94464L423.511 -12.5649L393.496 -32.644L388.536 -28.5331M420.87 -5.94464L388.536 -28.5331M722.485 -415.311L703.319 -382.957L698.433 -386.077M722.485 -415.311L714.042 -411.367L693.814 -425.325L697.569 -431.964M722.485 -415.311L697.569 -431.964M698.433 -386.077L669.127 -404.791L678.363 -421.706M698.433 -386.077L702.682 -391.661L680.384 -410.049L682.557 -420.066L678.363 -421.706M697.569 -431.964L687.602 -438.622L678.363 -421.706M528.966 -411.325L483.386 -409.837L477.762 -407.209L470.673 -396.701L491.048 -381.013M528.966 -411.325L533.053 -395.235M528.966 -411.325L498.066 -404.093M491.048 -381.013L488.96 -405.243L498.066 -404.093M491.048 -381.013L524.194 -355.497M533.053 -395.235L546.304 -385.221M533.053 -395.235L521.8 -389.979L505.712 -395.064L498.066 -404.093M533.053 -395.235L532.976 -384.398L536.427 -377.008M524.194 -355.497L531.486 -360.3L536.427 -377.008M524.194 -355.497L539.079 -344.044M546.304 -385.221L542.983 -410.675L592.808 -417.744L598.304 -402.313M546.304 -385.221L574.477 -365.26M546.304 -385.221L551.797 -369.788M536.427 -377.008L546.168 -367.159L539.082 -356.646L539.079 -344.044M598.304 -402.313L583.412 -379.153M598.304 -402.313L586.464 -412.982L577.996 -405.427L568.226 -411.665L559.705 -396.884L583.412 -379.153M574.477 -365.26L570.509 -359.086M574.477 -365.26L583.412 -379.153M551.797 -369.788L557.491 -350.258M551.797 -369.788L570.509 -359.086M539.079 -344.044L553.631 -332.838L566.871 -353.423M539.079 -344.044L557.491 -350.258M570.509 -359.086L566.871 -353.423M557.491 -350.258L566.871 -353.423M773.116 -275.145L791.058 -301.53L747.813 -331.731L735.461 -311.562M773.116 -275.145L764.966 -280.34L775.636 -301.523L752.408 -319.478L744.128 -306.608L735.461 -311.562M773.116 -275.145L769.723 -270.156M735.461 -311.562L731.601 -305.257M769.723 -270.156L751.158 -282.891M769.723 -270.156L760.879 -257.148M731.601 -305.257L727.74 -298.953M731.601 -305.257L755.911 -288.711L751.158 -282.891M751.158 -282.891L727.74 -298.953M760.879 -257.148L751.888 -261.825L747.758 -256.098L754.482 -247.744M760.879 -257.148L754.482 -247.744M727.74 -298.953L723.106 -291.391M754.482 -247.744L747.969 -238.165M723.106 -291.391L729.26 -287.063L733.508 -292.646M723.106 -291.391L720.018 -286.344M720.018 -286.344L733.401 -278.196L726.315 -267.684L713.784 -276.166M720.018 -286.344L713.784 -276.166M713.784 -276.166L707.667 -266.175M707.667 -266.175L747.969 -238.165M707.667 -266.175L701.488 -256.087M747.969 -238.165L727.348 -207.846M701.488 -256.087L688.362 -234.653M701.488 -256.087L711.451 -248.14L698.217 -227.878M727.348 -207.846L713.907 -188.079M727.348 -207.846L718.764 -213.754M713.907 -188.079L706.731 -177.53L687.894 -190.333M713.907 -188.079L704.739 -192.799L718.764 -213.754M718.764 -213.754L698.217 -227.878M688.362 -234.653L698.217 -227.878M688.362 -234.653L684.546 -228.421M687.894 -190.333L669.06 -203.137L680.727 -222.187M687.894 -190.333L691.463 -199.202L696.456 -210.532L680.727 -222.187M684.546 -228.421L680.727 -222.187M684.546 -228.421L709.064 -209.223L713.312 -214.807M534.457 -39.1236L546.314 -28.4229L526.471 2.50146L515.309 -6.72009L523.751 -10.6632L524.537 -23.6623L529.496 -31.3949M534.457 -39.1236L529.496 -31.3949M534.457 -39.1236L509.313 -56.2539L488.756 -23.1922L506.911 -10.017L510.466 -17.0893L506.314 -25.9776L509.91 -40.2935L529.496 -31.3949M646.279 -82.3377L614.144 -103.418M646.279 -82.3377L680.311 -137.933M646.279 -82.3377L603.043 -13.4147L569.502 -33.8381L614.144 -103.418M614.144 -103.418L650.277 -158.191M680.311 -137.933L650.277 -158.191M680.311 -137.933L679.666 -146.655L690.304 -164.256L683.314 -168.211L686.172 -176.766M680.311 -137.933L698.749 -168.201L686.172 -176.766M650.277 -158.191L668.711 -188.457L686.172 -176.766M650.277 -158.191L665.827 -176.282L677.015 -170.68L686.172 -176.766M384.086 325.268L399.705 296.317M399.705 296.317L410.342 278.716L385.198 261.586L374.561 279.186L399.705 296.317ZM919.243 -140.951L855.696 -185.172L835.107 -152.122L900.064 -108.56M919.243 -140.951L913.492 -131.233M919.243 -140.951L953.474 -119.089L938.543 -92.2862M900.064 -108.56L934.987 -85.2151L938.543 -92.2862M900.064 -108.56L913.492 -131.233M913.492 -131.233L939.42 -116.128L928.766 -98.5341L938.543 -92.2862M806.567 -297.926L750.719 -340.376L781.251 -392.517L825.499 -360.221M806.567 -297.926L845.473 -269.72M806.567 -297.926L835.605 -345.921M825.499 -360.221L838.512 -350.722M825.499 -360.221L820.971 -351.547L826.554 -346.939L804.543 -309.605L762.649 -340.54L769.024 -348.926L776.064 -352.215L773.297 -358.138L782.535 -375.078L793.801 -380.341L788.81 -368.99L816.748 -349.575L825.499 -360.221ZM845.473 -269.72L861.037 -258.438L866.042 -266.082M845.473 -269.72L850.636 -277.026L866.042 -266.082M835.605 -345.921L838.512 -350.722M835.605 -345.921L848.243 -337.234L846.811 -332.955L857.285 -325.222L864.5 -332.198M838.512 -350.722L864.5 -332.198M866.042 -266.082L882.062 -290.538M864.5 -332.198L879.789 -321.306M879.789 -321.306L895.075 -310.409L882.062 -290.538M879.789 -321.306L872.624 -310.743L883.094 -303.009L876.724 -294.621L882.062 -290.538M700.546 -289.887L685.112 -289.889L674.487 -275.907L687.059 -267.352L700.546 -289.887ZM700.546 -289.887L710.219 -305.904M710.219 -305.904L702.952 -310.439M710.219 -305.904L716.886 -316.948M702.952 -310.439L671.471 -330.104M702.952 -310.439L709.888 -321.303M716.886 -316.948L709.888 -321.303M716.886 -316.948L721.822 -325.126M649.342 -293.021L655.31 -303.025M655.31 -303.025L663.397 -295.981L659.125 -286.769M655.31 -303.025L666.238 -300.913L669.078 -305.846L660.987 -312.531M655.31 -303.025L660.987 -312.531M660.987 -312.531L666.66 -322.045M704.824 -299.096L666.66 -322.045M666.66 -322.045L671.471 -330.104M671.471 -330.104L686.866 -355.899M686.866 -355.899L695.364 -352.398L706.008 -369.995L698.409 -375.251M686.866 -355.899L698.409 -375.251M709.888 -321.303L688.94 -336.768L691.779 -341.704L716.564 -328.027M721.822 -325.126L716.564 -328.027M721.822 -325.126L731.491 -341.145M698.409 -375.251L701.466 -380.373M716.564 -328.027L717.716 -337.584L699.561 -350.748L703.81 -356.343L731.491 -341.145M731.491 -341.145L737.294 -350.757M737.294 -350.757L727.79 -356.412L732.613 -360.778L712.36 -374.765L716.607 -380.354M737.294 -350.757L744.526 -362.733M716.607 -380.354L724.82 -375.171M716.607 -380.354L706.047 -388.051M744.526 -362.733L724.82 -375.171M744.526 -362.733L757.6 -384.398M724.82 -375.171L723.004 -392.361L730.07 -399.272L738.494 -399.597L757.6 -384.398M706.047 -388.051L722.463 -415.556L735.035 -407L742.124 -417.528L767.273 -400.415L757.6 -384.398M706.047 -388.051L704.523 -385.495M704.523 -385.495L709.675 -380.513L706.751 -375.75L701.466 -380.373M704.523 -385.495L701.466 -380.373M550.812 -115.17L521.164 -68.8647L554.617 -44.8214L577.209 -80.6164M550.812 -115.17L555.694 -112.038L557.809 -114.829L566.878 -110.053L566.838 -102.82L572.411 -98.2097M550.812 -115.17L577.657 -160.165M577.209 -80.6164L568.83 -83.9162L572.411 -98.2097M577.209 -80.6164L610.415 -137.599M572.411 -98.2097L588.771 -136.371M577.657 -160.165L585.669 -153.988M577.657 -160.165L581.4 -166.783M610.415 -137.599L593.679 -147.814M610.415 -137.599L615.412 -145.345M588.771 -136.371L593.679 -147.814M588.771 -136.371L585.669 -153.988M585.669 -153.988L593.679 -147.814M581.4 -166.783L588.88 -165.407L596.669 -181.667L592.64 -186.637M581.4 -166.783L592.64 -186.637M615.412 -145.345L609.788 -149.927L617.554 -162.571L624.295 -159.113M615.412 -145.345L624.295 -159.113M624.295 -159.113L630.405 -168.574M592.64 -186.637L594.548 -190.012M630.405 -168.574L638.182 -180.621M630.405 -168.574L621.253 -175.118M638.182 -180.621L652.064 -202.131L629.894 -216.66M638.182 -180.621L630.973 -185.07L638.052 -199.195L626.198 -206.278L629.894 -216.66M621.253 -175.118L615.083 -188.466L609.317 -191.179L602.302 -187.902M621.253 -175.118L619.729 -176.208L612.992 -171.259L603.643 -177.71L602.302 -187.902M629.894 -216.66L626.362 -218.976M626.362 -218.976L615.113 -226.343L611.365 -219.727M626.362 -218.976L621.474 -212.727L611.365 -219.727M611.365 -219.727L605.404 -209.186M605.404 -209.186L610.091 -204.161L606.551 -197.101L599.856 -199.381M605.404 -209.186L599.856 -199.381M599.856 -199.381L594.548 -190.012M594.548 -190.012L602.302 -187.902M318.339 48.0417L237.165 -8.16541L254.131 -35.6489L335.774 18.6346L318.339 48.0417ZM261.183 -51.2616L346.399 6.23779L363.425 -21.4089L278.21 -78.9044L261.183 -51.2616ZM290.939 93.9524L209.241 38.3838L227.737 5.37689L311.029 62.5391L290.939 93.9524ZM343.114 -187.76L428.332 -130.265L445.355 -157.909L360.14 -215.406L343.114 -187.76ZM370.15 -231.482L454.42 -174.459L471.207 -201.804L386.942 -258.829L370.15 -231.482ZM399.012 -273.66L483.276 -216.634L500.069 -243.983L415.801 -301.006L399.012 -273.66ZM422.558 -317.766L506.824 -260.746L523.613 -288.092L439.345 -345.116L422.558 -317.766ZM444.535 -353.418L529.4 -296.677L546.495 -324.17L461.63 -380.911L444.535 -353.418ZM439.577 -120.659L467.264 -102.094L564.549 -259.528L536.864 -278.089L439.577 -120.659ZM479.522 -91.8528L507.298 -73.3346L605.398 -231.149L577.622 -249.667L479.522 -91.8528ZM652.187 22.604L679.968 41.3671L776.922 -116.773L749.143 -135.533L652.187 22.604ZM344.289 131.38L365.193 145.357L438.805 26.5496L417.905 12.5703L344.289 131.38ZM307.367 106.682L328.272 120.662L401.886 1.85742L380.981 -12.1232L307.367 106.682ZM909.771 -237.93L912.613 -242.846L885.458 -262.464L882.6 -255.748L909.771 -237.93ZM922.036 -196.997L925.598 -204.047L920.033 -208.623L917.187 -203.706L920.628 -196.339L922.036 -196.997ZM775.227 -148.162L778.785 -155.21L755.088 -169.264L752.935 -162.872L775.227 -148.162ZM747.369 -167.452L750.93 -174.502L734.387 -184.233L731.33 -176.114L747.369 -167.452ZM758.263 -213.817L761.106 -218.733L753.447 -224.129L749.196 -218.555L758.263 -213.817ZM803.477 -208.021L813.151 -221.025L805.995 -225.346L797.11 -213.531L803.477 -208.021ZM827.628 -215.709L832.295 -221.482L823.45 -228.118L819.281 -222.578L827.628 -215.709ZM600.52 -30.6645L593.489 -27.3799L585.83 -32.7759L585.892 -39.9802L581.013 -43.0875L576.701 -30.3059L603.872 -12.4887L610.276 -24.4539L600.52 -30.6645ZM259.676 232.172L234.566 217.832L297.228 118.607L319.488 132.631L259.676 232.172ZM299.083 260.121L272.921 243.233L333.284 142.603L362.505 160.924L299.083 260.121ZM346.673 297.491L308.809 272.806L374.232 169.832L409.762 193.569L346.673 297.491ZM163.699 165.358L223.054 205.13L284.449 104.876L225.096 65.1076L163.699 165.358ZM140.601 151.352L154.738 160.884L216.969 59.6541L202.829 50.1233L140.601 151.352ZM357.06 305.215L430.397 356.614L496.32 253.644L422.983 202.245L357.06 305.215ZM214.877 333.991L241.116 352.317L288.193 275.928L261.952 257.598L214.877 333.991ZM174.603 306.844L200.69 324.844L248.037 249.032L221.95 231.031L174.603 306.844ZM579.404 -260.807L604.982 -243.684L694.972 -389.091L669.392 -406.217L579.404 -260.807ZM566.495 -276.478L545.531 -290.508L622.995 -415.065L643.934 -399.639L566.495 -276.478ZM618.939 -434.773L630.329 -454.493L614.25 -463.187L606.397 -446.918L618.939 -434.773ZM635.993 -460.743L624.058 -460.566L618.536 -472.387L629.781 -474.041L635.993 -460.743ZM442.912 -370.552L430.341 -379.08L434.599 -384.668L440.206 -383.688L444.494 -392.894L451.483 -388.956L442.912 -370.552ZM418.475 178.966L383.198 155.605L435.586 69.4309L469.233 91.6886L418.475 178.966ZM443.006 366.343L467.878 383.255L534.252 278.14L509.379 261.224L443.006 366.343ZM544.847 287.701L530.11 311.805L640.96 387.392L655.698 363.283L544.847 287.701ZM520.807 325.42L505.84 349.636L617.362 424.904L632.332 400.687L520.807 325.42ZM478.415 392.527L498.691 361.136L609.558 436.993L589.912 468.631L478.415 392.527ZM400.799 258.964L407.651 248.122L398.229 241.401L391.072 252.798L400.799 258.964ZM427.415 221.146L435.217 210.258L423.379 202.06L415.844 213.679L427.415 221.146ZM415.671 234.358L423.544 220.712L415.767 215.55L407.175 228.199L415.671 234.358ZM447.26 337.7L452.876 328.4L445.002 323.302L439.115 332.021L447.26 337.7ZM422.62 169.303L412.793 164.617L416.486 156.717L426.731 161.375L422.62 169.303ZM420.029 151.754L422.158 145.237L434.784 150.26L430.661 157.822L420.029 151.754ZM450.664 123.092L441.28 116.91L443.153 110.955L446.037 108.698L455.728 114.76L450.664 123.092ZM469.122 91.2921L487.641 62.5754L452.445 38.3777L435.589 69.2845L469.122 91.2921ZM481.042 77.9982L473.869 73.2598L482.228 58.681L489.237 63.6277L481.042 77.9982ZM414.48 475.524L461.215 398.236L437.529 379.772L384.301 465.136L394.339 471.968L402.481 468.887L414.48 475.524ZM365.031 467.719L425.721 371.87L398.008 351.876L337.617 450.258L365.031 467.719ZM252.548 -59.1915L269.388 -88.0407L200.664 -133.186L183.977 -105.492L252.548 -59.1915ZM247.983 -188.212L266.001 -217.788L322.124 -180.712L304.318 -150.701L247.983 -188.212ZM335.413 -190.611L353.581 -219.698L298.271 -258.248L279.96 -228.446L335.413 -190.611ZM359.655 -233.942L378.476 -265.642L329.75 -299.441L310.249 -269.931L359.655 -233.942ZM377.242 -304.252L370.04 -308.091L372.884 -313.018L379.865 -309.076L377.242 -304.252ZM425.658 -339.469L418.676 -343.41L422.235 -350.471L428.525 -348.011L425.658 -339.469ZM685.242 -458.924L676.799 -454.98L684.471 -449.562L685.242 -458.924ZM670.055 -491.438L672.205 -497.84L665.223 -501.782L659.565 -495.54L670.055 -491.438ZM665.675 -467.789L669.921 -473.371L659.463 -481.087L657.31 -474.683L665.675 -467.789ZM1073.49 -53.3938L1083.4 -65.2214L1068.08 -79.6694L1056.77 -67.1851L1072.8 -54.8709L1073.49 -53.3938ZM1071.45 -61.4417L1073.57 -64.2318L1066.62 -71.7857L1064.5 -68.9938L1071.45 -61.4417ZM373.421 -352.074L386.074 -374.314L428.886 -346.752L416.025 -322.082L373.421 -352.074ZM435.609 -358.822L451.518 -388.089L411.74 -413.896L395.901 -386.648L435.609 -358.822ZM263.99 -239.006L279.768 -268.368L298.235 -257.846L280.25 -228.859L263.99 -239.006ZM310.459 -269.459L329.776 -299.014L309.933 -311.155L290.343 -281.83L310.459 -269.459ZM357.679 -340.882L346.756 -349.326L319.074 -329.013L339.979 -310.841L357.679 -340.882ZM372.828 -351.571L360.017 -359.504L381.042 -377.482L386.209 -374.317L372.828 -351.571ZM697.808 183.14L717.67 150.976L649.882 103.984L628.331 136.932L697.808 183.14ZM643.253 85.006L662.516 54.1673L620.925 25.9016L601.481 55.8224L643.253 85.006ZM182.341 268.296L156.472 242.038L140.757 205.07L145.025 198.736L135.077 191.45L141.713 180.213L209.152 222.496L182.341 268.296ZM168.039 290.429L156.298 241.831L181.89 268.098L168.039 290.429ZM188.239 345.009L200.904 325.343L174.775 307.149L161.967 327.05L188.239 345.009ZM170.402 375.824L182.671 370.787L179.429 362.069L167.375 365.792L170.402 375.824ZM153.093 380.189L159.566 376.256L154.695 366.196L147.658 369.665L153.093 380.189ZM166.204 392.828L175.196 388.451L170.253 377.869L162.163 381.471L166.204 392.828ZM65.5957 145.131L68.248 137.58L63.5941 136.201L66.7985 128.037L60.846 126.379L56.5008 139.072L65.5957 145.131ZM229.328 373.275L240.894 351.883L214.573 333.811L199.908 353.928L229.328 373.275ZM242.96 369.115L247.372 361.026L240.117 354.991L234.821 362.511L242.96 369.115ZM181.741 62.1809L192.19 44.4118L182.207 37.8035L176.038 51.2341L168.022 45.2404L174.956 32.8932L168.218 27.6604L157.77 46.3367L181.741 62.1809ZM112.665 58.4656L122.208 59.0854L120.69 26.0266L110.178 24.9711L112.665 58.4656ZM321.226 338.075L337.656 310.932L300.094 285.034L283.074 312.226L321.226 338.075ZM441.149 -57.888L458.454 -87.3342L338.32 -168.79L320.156 -140.031L441.149 -57.888ZM454.396 -48.6239L470.276 -78.565L457.814 -87.7468L441.143 -58.2352L454.396 -48.6239ZM482.505 -29.746L499.906 -60.0272L470.928 -78.4206L454.45 -48.6492L482.505 -29.746ZM457.126 83.6509L460.252 74.8266L439.678 62.0007L435.696 69.5125L457.126 83.6509ZM266.076 -218L252.833 -227.089L234.721 -195.337L248.117 -188.464L266.076 -218ZM228.967 -132.059L250.376 -166.547L226.615 -182.835L205.427 -149.359L228.967 -132.059ZM279.073 -95.8631L299.823 -133.939L250.156 -166.238L229.009 -131.953L279.073 -95.8631ZM283.718 -104.62L271.908 -112.383L267.077 -104.804L279.119 -95.8849L283.718 -104.62ZM240.207 -124.065L244.322 -132.252L233.444 -139.669L228.873 -132.246L240.207 -124.065ZM240.49 -134.13L246.139 -142.538L238.721 -147.652L233.452 -138.982L240.49 -134.13ZM200.133 -171.569L206.157 -183.24L195.045 -190.162L188.322 -178.889L200.133 -171.569ZM214.405 -205.828L229.026 -228.796L219.996 -233.825L206.996 -212.16L214.405 -205.828ZM181.875 -139.862L184.185 -145.214L172.958 -153.356L169.491 -148.317L181.875 -139.862ZM181.669 -87.891L185.554 -97.3896L169.09 -106.297L164.99 -96.5184L181.669 -87.891ZM153.68 -109.032L159.375 -117.99L151.423 -122.326L145.751 -114.076L153.68 -109.032ZM161.198 -82.7438L164.459 -90.5666L156.53 -94.9114L153.351 -88.3547L161.198 -82.7438ZM128.395 -99.429L133.159 -108.09L126.786 -111.012L130.243 -116.559L121.073 -121.394L114.689 -107.327L128.395 -99.429ZM120.148 -37.0795L126.925 -59.8653L119.477 -63.2554L111.816 -40.2285L120.148 -37.0795ZM128.162 -27.5784L98.9406 -37.0751L110.655 -72.379L138.469 -61.1426L128.162 -27.5784ZM132.2 -19.531L89.8077 -32.9985L107.085 -83.9561L147.422 -67.9686L132.2 -19.531ZM227.073 -19.6988L236.83 -46.6885L211.069 -55.2681L202.574 -30.2347L227.073 -19.6988ZM219.029 -31.3934L221.915 -40.8121L217.371 -44.9671L210.369 -39.5393L219.029 -31.3934ZM226.466 -27.1411L228.938 -32.8658L220.937 -35.5956L219.662 -31.4587L226.466 -27.1411ZM230.553 -43.5854L222.518 -40.7488L221.446 -37.0907L229.319 -35.096L230.553 -43.5854ZM467.707 57.7379L472.643 49.3699L452.821 35.9948L448.064 44.0088L467.707 57.7379ZM261.71 -151.768L266.291 -156.105L250.207 -166.262L246.565 -160.529L261.71 -151.768ZM217.53 -0.580139L159.57 -42.2495L136.466 -6.35925L197.517 36.0485L217.53 -0.580139ZM202.293 27.1952L195.32 22.7574L207.307 2.77881L214.197 6.46149L202.293 27.1952ZM201.737 0.96582L207.447 -7.98853L180.385 -27.6903L175.273 -17.7968L201.737 0.96582ZM183.747 25.9251L189.179 16.6992L169.246 4.00171L163.974 12.3606L183.747 25.9251ZM162.97 -3.00012L172.344 -19.3409L163.972 -24.4386L154.205 -8.55188L162.97 -3.00012ZM156.024 5.76324L159.01 -0.629883L150.169 -6.95374L146.667 -1.06158L156.024 5.76324ZM587.917 432.037L573.252 423.067L577.898 415.746L591.872 425.123L587.917 432.037ZM605.017 445.019L595.59 437.808L600.129 430.747L609.732 437.367L605.017 445.019ZM500.594 47.8946L459.711 21.6844L479.571 -11.8196L520.031 13.7733L500.594 47.8946ZM492.957 43.2382L512.633 9.15961L520.049 13.8125L500.411 47.9802L492.957 43.2382ZM467.482 26.9388L482.277 0.020813L487.701 3.30951L490.722 -4.07837L479.118 -11.6079L459.807 21.8905L467.482 26.9388ZM491.732 15.6116L495.642 8.81799L490.727 3.94012L485.594 10.9359L491.732 15.6116ZM485.824 24.9932L487.941 18.3221L481.225 13.8972L478.917 20.2693L485.824 24.9932ZM566.927 502.545L517.759 483.598L451.982 437.541L472.196 405.52L579.289 478.523L566.927 502.545ZM438.5 480.05L430.566 474.392L447.287 446.955L494.836 479.663L492.151 485.599L438.5 480.05ZM595.715 525.521L591.783 519.445L615.529 500.814L620.302 507.252L595.715 525.521ZM577.057 532.029L580.373 525.736L569.258 518.013L564.753 523.015L577.057 532.029ZM615.848 488.524L644.508 462.196L622.37 445.743L600.664 477.023L615.848 488.524ZM671.022 445.092L678.385 430.754L643.254 408.395L627.36 434.935L651.182 454.001L671.022 445.092ZM693.695 427.879L698.617 419.291L705.8 417.016L711.84 417.067L718.131 404.788L666.042 371.261L649.517 397.306L693.695 427.879ZM736.588 401.221L751.603 363.03L693.865 324.05L679.952 348.115L690.481 351.973L693.091 357.927L687.759 368.121L736.588 401.221ZM684.478 362.65L688.121 357.082L684.779 351.836L676.433 355.37L678.086 361.59L684.478 362.65ZM784.722 366.997L788.857 360.922L794.912 364.043L807.401 343.073L720.17 284.169L703.551 309.777L784.722 366.997ZM767.641 424.614L764.396 418.77L808.937 403.67L823.837 372.606L831.105 374.917L816.343 410.322L767.641 424.614ZM662.103 351.027L708.952 274.084L675.699 250.86L628.504 326.331L662.103 351.027ZM643.591 301.921L653.103 308.875L685.701 257.388L676.023 250.709L643.591 301.921ZM542.101 266.909L575.582 208.592L566.913 201.79L538.681 251.508L444.134 187.164L472.758 141.961L481.998 147.051L487.688 134.262L479.709 130.396L505.083 89.2484L598.952 149.932L571.155 196.914L579.115 204.409L611.041 147.175L501.393 71.803L470.893 124.746L466.537 125.698L461.295 133.569L462.39 138.123L428.106 190.31L542.101 266.909ZM546.931 155.385L537.396 154.914L538.469 135.056L550.253 135.181L546.931 155.385ZM541.245 181.219L546.972 170.689L532.779 160.892L520.644 180.486L526.613 185.911L533.709 178.311L541.245 181.219ZM617.427 322.228L623.416 310.713L556.99 264.369L552.279 274.2L617.427 322.228ZM629.712 235.918L632.937 229.492L604.095 209.255L599.593 214.817L629.712 235.918ZM637.649 232.211L640.053 225.825L608.994 205.863L605.603 211.143L637.649 232.211ZM602.19 200.211L615.862 176.398L610.451 173.174L596.644 196.69L602.19 200.211ZM599.792 208.155L591.831 203.946L589.658 207.725L596.484 212.81L599.792 208.155ZM594.259 203.398L601.37 207.216L603.293 203.835L597.185 199.237L594.259 203.398ZM685.504 208.754L690.3 201.074L623.953 154.726L617.735 163.868L685.504 208.754ZM585.385 208.06L581.219 206.2L613.467 148.587L619.883 151.927L585.385 208.06ZM548.258 272.863L543.517 269.622L577.581 209.498L582.95 212.269L548.258 272.863ZM394.548 520.154L388.902 510.972L384.685 512.494L387.164 519.068L384.725 520.029L381.522 513.35L375.809 515.663L379.183 525.066L394.548 520.154ZM316.103 437.28L331.641 412.678L340.144 417.863L325.614 443.086L316.103 437.28ZM301.161 425.812L315.305 400.13L306.937 394.417L292.379 419.572L301.161 425.812ZM316.39 437.461L301.1 426.428L315.926 400.151L332.251 412.778L316.39 437.461ZM334.19 397.139L337.483 388.536L327.418 382.642L323.23 391.104L334.19 397.139ZM340.14 417.537L386.303 344.191L350.602 319.938L307 394.164L340.14 417.537ZM366.548 376.505L355.79 368.656L359.698 363.149L370.211 368.813L366.548 376.505ZM373.643 363.258L365.426 358.57L371.136 346.769L380.585 353.215L373.643 363.258ZM346.437 348.373L337.193 343.021L350.898 319.8L360.184 326.081L346.437 348.373ZM391.261 329.642L417.82 284.069L385.743 261.582L357.376 305.892L391.261 329.642ZM383.351 314.574L391.452 298.506L376.861 288.909L368.462 305.997L383.351 314.574ZM595.682 119.368L601.181 108.13L596.681 105.177L607.402 88.7892L614.024 91.8362L619.456 84.8524L604.923 75.3178L582.68 110.088L595.682 119.368ZM616.291 134.023L639.004 98.3467L604.534 75.4995L582.665 110.054L616.291 134.023ZM549.426 88.5158L572.272 53.0431L585.584 61.9592L574.553 68.752L565.577 83.8855L567.231 90.4087L563.542 96.8547L549.426 88.5158ZM564.054 96.2031L583.242 109.727L605.196 75.5893L585.71 62.2181L574.907 68.8557L566.085 83.5924L567.68 89.9265L564.054 96.2031ZM583.267 97.5743L594.126 80.2459L584.242 73.9409L573.84 91.1623L583.267 97.5743ZM595.247 6.99194L620.625 25.9216L601.576 55.9106L576.875 38.5876L595.247 6.99194ZM593.923 34.1L600.771 23.5848L590.054 16.0401L582.809 27.6631L593.923 34.1ZM576.749 38.3183L594.516 33.8229L583.618 27.8763L576.749 38.3183ZM1017.69 -25.8833L1039.28 -60.7562L965.618 -108.619L945.882 -76.409L1017.69 -25.8833ZM1002.51 17.6799L995.744 22.9992L917.086 -31.7271L937.664 -69.0725L1012.29 -19.3022L1002.51 17.6799ZM979.885 71.2446L990.715 47.9234L976.884 39.9215L975.732 32.325L969.722 29.3436L972.15 19.8934L909.316 -22.7194L889.833 9.16907L979.885 71.2446ZM974.192 78.7106L885.156 18.3665L864.553 49.5634L960.992 116.52L966.638 114.959L974.192 78.7106ZM991.321 42.7247L995.145 33.7783L984.973 29.1343L982.338 37.0792L991.321 42.7247ZM980.426 32.3621L982.966 26.6078L976.485 22.062L973.917 28.503L980.426 32.3621ZM887.03 39.5655L895.148 25.2733L884.911 18.4811L876.219 32.0052L887.03 39.5655ZM990.345 207.635L981.047 206.802L989.729 160.463L998.101 162.975L990.345 207.635ZM965.292 238.101L958.907 232.654L980.028 211.35L985.772 216.918L965.292 238.101ZM938.886 255.953L952.388 248.111L948.727 239.216L935.23 247.066L938.886 255.953ZM838.724 91.1434L858.013 59.7419L972.051 137.925L953.868 171.695L838.724 91.1434ZM941.045 184.964L910.41 164.669L909.196 156.224L903.208 152.171L895.645 154.982L850.818 123.296L852.392 115.711L838.462 107.079L834.534 110.354L830.773 107.785L812.667 136.963L924.049 215.424L941.045 184.964ZM888.673 249.608L919 227.558L804.263 149.969L783.842 179.222L888.673 249.608ZM795.889 186.992L800.961 178.064L789.977 169.886L783.67 178.852L795.889 186.992ZM802.783 167.216L810.904 154.455L804.199 149.998L795.003 162.947L802.783 167.216ZM853.004 293.863L871.974 256.84L778.267 193.016L756.085 226.126L853.004 293.863ZM841.01 314.917L844.621 306.973L836.095 300.658L831.775 307.827L841.01 314.917ZM829.244 302.754L831.096 296.922L825.259 292.475L823.003 298.5L829.244 302.754ZM815.639 335.598L832.67 314.47L818.506 303.584L819.515 299.506L816.236 296.526L819.779 290.902L798.124 277.556L788.783 291.304L792.531 297.129L784.162 312.226L815.639 335.598ZM767.549 256.519L799.348 278.576L789.278 291.739L793.002 297.528L784.695 312.526L749.038 289.014L767.549 256.519ZM726.517 273.88L747.241 241.724L767.77 255.867L748.934 288.393L726.517 273.88ZM748.064 255.688L753.582 246.759L746.801 241.929L741.194 250.955L748.064 255.688ZM713.817 267.27L733.865 232.904L697.223 206.591L677.942 240.777L713.817 267.27ZM712.504 242.68L714.81 237.004L709.674 233.886L705.537 240.782L711.542 244.051L712.504 242.68ZM713.477 249.769L719.76 239.623L716.936 232.105L706.289 225.534L696.865 241.119L706.991 250.635L713.477 249.769ZM688.02 224.134L677.878 219.374L680.707 212.098L691.578 217.986L688.02 224.134ZM758.345 192.09L753.219 195.022L742.26 187.968L744.719 183.959L732.322 175.254L735.178 165.683L748.675 175.309L751.752 172.621L757.778 176.962L763.605 185.517L762.861 192.486L758.345 192.09ZM791.755 137.048L803.849 118.087L775.678 99.3056L765.671 119.053L791.755 137.048ZM786.41 146.167L791.757 137.093L774.165 125.398L771.223 133.303L786.41 146.167ZM780.174 156.806L786.063 146.17L774.389 145.16L770.981 149.324L780.174 156.806ZM772.655 171.355L779.133 159.689L761.542 162.198L772.655 171.355ZM745.678 151.864L765.349 118.479L791.715 137.003L772.668 171.349L745.678 151.864ZM742.73 150.265L683.36 108.243L714.749 59.3356L775.183 99.2489L745.726 151.927L742.73 150.265ZM724.582 107.721L739.591 82.1254L721.539 70.5125L715.787 80.4897L723.622 85.5764L715.206 100.807L724.582 107.721ZM712.724 129.816L720.241 113.948L709.857 107.977L706.826 115.524L701.496 112.244L697.183 118.931L712.724 129.816ZM693.144 115.784L696.522 110.427L690.446 104.903L686.861 111.011L693.144 115.784ZM741.439 149.514L750.894 134.678L745.592 130.431L741.281 133.533L732.419 128.397L733.768 122.314L728.599 119.089L719.891 134.465L741.439 149.514ZM765.2 92.0553L761.934 100.207L751.3 93.0137L754.53 84.9023L765.2 92.0553ZM311.973 353.434L320.793 338.63L283.113 312.833L274.249 328.776L311.973 353.434ZM305.117 365.466L312.2 353.314L297.282 343.741L290.619 354.37L305.117 365.466ZM293.854 371.831L297.52 364.417L289.745 359.402L285.518 367.078L293.854 371.831ZM287.281 396.976L296.735 381.641L285.051 375.943L276.328 389.936L287.281 396.976ZM278.7 412.021L312.333 353.597L274.051 329.207L241.078 385.358L278.7 412.021ZM279.97 362.865L283.056 357.081L276.48 353.458L273.093 359.382L279.97 362.865ZM280.049 342.961L284.184 335.868L273.911 329.272L268.717 338.198L280.049 342.961ZM283.778 401.159L276.281 396.596L270.42 405.641L278.116 411.19L283.778 401.159ZM257.656 397.22L262.387 389.841L275.659 397.956L270.258 406.031L257.656 397.22ZM296.184 -127.034L272.893 -141.972L276.657 -148.817L299.702 -134.2L296.184 -127.034ZM650.834 374.135L643.252 368.662L634.055 383.108L642.393 388.93L650.834 374.135ZM759.366 -265.318L761.384 -269.665L751.614 -275.902L748.511 -269.055L759.366 -265.318ZM651.565 369.194L640.616 361.712L644.098 355.022L655.559 362.985L651.565 369.194ZM636.556 359.649L640.874 352.813L628.52 344.64L625.022 351.956L636.556 359.649ZM824.848 84.0636L844.826 49.8617L735.307 -25.3201L713.471 7.30481L824.848 84.0636ZM638.66 11.4548L669.137 -37.0682L641.204 -56.5035L610.032 -9.45938L638.66 11.4548ZM698.925 -87.0776L671.68 -105.03L707.835 -163.421L733.673 -144.816L698.925 -87.0776ZM667.787 -153.738L670.622 -158.675L665.041 -163.283L659.414 -160.655L667.787 -153.738ZM668.323 -237.002L631.296 -261.214L649.042 -292.962L686.757 -267.268L668.323 -237.002ZM678.321 -46.7741L694.631 -74.2444L662.5 -95.3262L646.904 -69.9933L678.321 -46.7741ZM673.477 -57.1431L684.807 -73.2628L665.242 -85.7796L660.282 -78.0509L660.906 -65.7065L673.477 -57.1431ZM869.759 6.53693L761.509 -67.2709L742.33 -34.88L850.581 38.9317L869.759 6.53693ZM767.886 -75.6597C773.811 -86.2364 785.797 -107.097 786.349 -105.915C786.903 -104.728 860.625 -57.0891 897.418 -33.4188L876.828 -0.368896L767.886 -75.6597ZM807.424 -108.547L828.041 -145.218L926.511 -77.6523L905.202 -42.4646L807.424 -108.547ZM850.377 -225.948L861.031 -243.541L796.125 -294.34L784.064 -276.089L850.377 -225.948ZM951.75 -269.697L958.152 -281.701L933.704 -297.316L927.302 -285.313L951.75 -269.697ZM337.661 360.563L333.237 369.991L323.164 367.335L329.784 355.048L337.661 360.563ZM322.728 380.578L317.172 390.74L311.495 389.609L317.732 377.233L322.728 380.578ZM614.788 -44.0768L618.326 -51.1413L600.899 -62.8357L595.959 -55.1166L614.788 -44.0768ZM631.665 -59.1743L626.096 -63.7868L634.554 -74.9473C636.886 -74.8363 641.408 -74.1827 640.836 -72.4744C640.269 -70.764 634.485 -62.8963 631.665 -59.1743ZM618.409 -65.6032L626.906 -84.0003L610.886 -96.3473L597.484 -77.466L618.409 -65.6032ZM581.682 -129.589L574.709 -133.542L567.631 -119.417L571.779 -110.536L581.682 -129.589Z" stroke="#FEFEFE" stroke-opacity="0.24" stroke-width="2"/>
</svg>
