<svg width="439" height="672" viewBox="0 0 439 672" fill="none" xmlns="http://www.w3.org/2000/svg">
<path d="M-32.6097 992.43L-38.8432 983.114L6.68463 956.726L12.7471 966.038M-32.6097 992.43L12.7471 966.038M-32.6097 992.43L-19.1856 1012.49M12.7471 966.038L26.3925 986.995M-19.1856 1012.49H-12.8267L-13.913 1020.37M-19.1856 1012.49L-13.913 1020.37M26.3925 986.995V995.535H31.9493M26.3925 986.995L31.9493 995.535M-13.913 1020.37L-4.56256 1034.34M31.9493 995.535L40.0378 1007.95M-4.56256 1034.34L-1.44574 1039L6.68463 1034.56M-4.56256 1034.34L3.42999 1029.68L6.68463 1034.56M6.68463 1034.56L35.9517 1018.6M35.9517 1018.6L44.0822 1014.16L40.0378 1007.95M35.9517 1018.6L31.0718 1014.16L40.0378 1007.95M-40.4684 872.06L-63.2346 835.644L12.7471 792.179L34.7652 827.883M-40.4684 872.06L34.7652 827.883M-40.4684 872.06L-34.1221 882.214M34.7652 827.883L51.9996 855.821M-34.1221 882.214L-24.4207 897.735M-34.1221 882.214L-7.95093 866.687L3.0791 882.804M51.9996 855.821L12.7471 877.558M51.9996 855.821L61.0533 870.509M-24.4207 897.735L-9.57623 889.677M-24.4207 897.735L-12.8267 916.279M3.0791 882.804L12.7471 877.558M3.0791 882.804L-3.24646 886.241M12.7471 877.558L34.7652 913.073M61.0533 870.509L53.8379 874.452L60.3389 882.804L66.3595 879.108M61.0533 870.509L66.3595 879.108M-14.4561 845.772L-37.218 858.926L-50.2241 838.749L12.7471 804.596L24.5708 823.223L3.0791 835.644M-14.4561 845.772L-17.7066 840.299L0.179565 830.984L3.0791 835.644M-14.4561 845.772L3.0791 835.644M-9.57623 889.677L-17.7066 877.558L-11.2014 872.898L-3.24646 886.241M-9.57623 889.677L-6.41339 887.959M-12.8267 916.279L-6.41339 887.959M-12.8267 916.279L-9.57623 921.483M-3.24646 886.241L-6.41339 887.959M-9.57623 921.483L-3.07098 931.889L6.68463 927.04M-9.57623 921.483L6.68463 927.04M34.7652 913.073L6.68463 927.04M34.7652 913.073L65.2188 897.928M65.2188 897.928L74.9745 893.08L66.3595 879.108M65.2188 897.928L42.4528 908.602L39.2023 903.946L61.9642 893.08L65.2188 897.928ZM82.0187 771.997L70.0945 756.471L87.9807 746.229M82.0187 771.997L87.9807 779.758L116.262 762.149M82.0187 771.997L87.9807 746.229M87.9807 746.229L94.4859 742.504M116.262 762.149L125.378 756.471L120.014 747.935M116.262 762.149L110.743 754.92L120.014 747.935M94.4859 742.504L110.743 733.188L114.649 739.398M94.4859 742.504L99.3616 748.71L114.649 739.398M120.014 747.935L114.649 739.398M286.972 830.888L264.135 844.888L286.972 876L295.128 871.217M286.972 830.888L277.186 815.334L304.915 801.334L326.118 819.999L319.592 826.222L329.378 838.669V851.111L295.128 871.217M286.972 830.888L295.128 838.669L280.447 848C285.338 854.743 295.128 868.819 295.128 871.217M250.919 553.299L244.992 544.223L263.748 532.845M250.919 553.299L269.377 542.516L267.52 539.322M250.919 553.299L260.043 567.276M263.748 532.845L284.055 520.524M263.748 532.845L267.52 539.322M267.52 539.322L284.055 532.845V520.524M260.043 567.276L263.748 572.956L287.32 558.719M260.043 567.276L284.055 553.299L287.32 558.719M284.055 520.524L294.902 513.942L314.148 542.516L287.32 558.719M334.622 857.68C335.925 856.434 334.077 868.55 332.987 874.763H326.466V857.68C328.641 858.199 333.314 858.92 334.622 857.68ZM334.622 857.68V811.091L308.523 787.795L314.148 783.138M314.148 783.138L323.201 766.054M314.148 783.138L323.201 787.795L346.039 804.878V887.184M314.148 783.138H326.466M323.201 766.054L349.3 691.512M323.201 766.054L329.727 770.712M346.039 887.184L337.883 890.291L339.513 865.444H336.252M346.039 887.184L352.56 880.972M326.466 783.138L329.727 770.712M326.466 783.138L352.56 798.666V880.972M267.747 244.26C276.561 243.288 287.827 243.887 297.106 247.945M267.747 244.26C268.908 252.561 270.689 262.635 277.076 273.769M267.747 244.26C266.439 243.019 249.804 193.015 241.648 168.167L142.152 127.792L119.314 143.32L68.7513 104.496L80.1683 79.6484L21.4491 12.8705L-73.1553 29.9538L-87.8331 54.8011L-169.39 53.2499L-171.021 34.6155L-272.147 2L-330.866 73.4355V101.389L-356.964 118.473M297.106 247.945C292.265 251.379 283.217 261.344 285.685 273.769M297.106 247.945C308.393 252.884 316.746 262.949 314.177 281.533M277.076 273.769H285.685M277.076 273.769C278.174 275.681 279.402 277.622 280.794 279.597M277.076 273.769L249.804 290.911M-356.964 118.473L-335.761 146.426M-356.964 118.473L-348.716 129.343M-356.964 118.473L-365.121 123.13M285.685 273.769C295.472 281.533 295.472 283.085 314.177 281.533M285.685 273.769L280.794 279.597M314.177 281.533C313.259 288.161 310.954 295.875 306.893 304.83M280.794 279.597C286.452 287.629 294.692 296.118 306.893 304.83M280.794 279.597C274.318 283.671 262.344 290.916 253.065 295.741M249.804 290.911L240.017 297.061M249.804 290.911L228.601 261.344L248.174 238.052L223.705 174.38L142.152 143.32M-335.761 146.426L-280.303 110.709L-291.72 78.0973L-260.73 40.8242L-198.75 57.9075L-193.854 85.8613H-63.3688L-55.2128 64.1204L1.87598 50.1435L39.3918 85.8613L29.6052 115.366L124.21 186.802L142.152 166.616L202.502 186.802L223.705 236.496L202.502 258.237L267.747 357.627L297.106 346.756L341.143 387.136V439.933L319.94 453.909L341.143 576.595L377.029 585.91L396.602 627.841L368.873 669.771H349.3M-335.761 146.426L-340.652 139.975M-335.761 146.426L-343.917 151.084M-348.716 129.343L-340.652 139.975M-348.716 129.343L-304.771 102.945L-312.923 73.4355L-268.886 17.5322L-184.068 40.8242L-179.177 67.2268H-81.3073L-68.2599 43.9306L11.6626 25.2962L62.2256 79.6484L50.8087 109.158L119.314 160.403M-365.121 123.13L-392.85 137.107L-407.528 123.13L-505.393 151.084L-521.705 241.158L-508.658 256.686L-541.278 321.909L-565.746 314.145L-632.622 390.238L-601.627 467.886L-573.898 474.099L-570.638 554.854L-591.841 556.405L-606.523 641.818L-564.112 713.253L-531.492 714.808L-522.816 734.994M-365.121 123.13L-354.517 137.107M306.893 304.83L378.659 377.816L385.185 503.604L437.378 624.734V634.054L390.076 703.938M390.076 703.938L368.873 700.832C366.157 709.631 360.717 728.161 360.717 731.888M390.076 703.938C397.147 724.384 401.82 770.636 363.982 792.067M253.065 295.741C249.1 297.803 245.625 299.422 243.278 300.168M253.065 295.741L277.076 335.29M360.717 731.888C363.982 733.443 360.717 741.207 360.717 744.313M360.717 731.888C358.11 730.647 347.669 728.266 342.774 727.23M363.982 792.067L368.873 795.559L360.717 868.55L352.56 880.972M363.982 792.067L342.774 776.925L360.717 744.313M243.278 300.168L240.017 297.061M243.278 300.168V301.723L267.747 338.992M277.076 335.29L267.747 338.992M277.076 335.29L300.367 326.051M240.017 297.061L215.549 258.237L236.753 238.052L215.549 180.593L142.152 155.746M142.152 143.32V155.746M142.152 143.32L119.314 160.403M267.747 338.992L272.638 343.65L300.367 332.779M142.152 155.746L122.579 174.38M300.367 332.779V326.051M300.367 332.779L350.93 382.474V447.701L326.466 458.571L352.56 570.382M122.579 174.38L39.3918 115.366L50.8087 82.7549L10.0322 37.7178L-63.3688 53.2499L-74.7858 78.0973H-187.329L-193.854 48.5924L-265.625 28.4027L-304.771 78.0973L-294.985 107.602L-340.652 139.975M122.579 174.38L119.314 160.403M349.3 669.771V691.512M349.3 669.771L359.086 679.091M349.3 691.512H355.826M359.086 679.091L356.638 688.406M359.086 679.091L375.398 677.535L408.019 630.947V621.632L383.555 576.595M-343.917 151.084L-392.85 185.251L-422.209 161.954L-476.033 179.038L-484.189 227.181L-462.986 250.473L-526.6 362.288L-559.221 357.627L-593.471 390.238L-573.898 441.488L-542.908 446.145L-534.752 576.595L-564.112 585.91L-575.533 637.16L-542.908 680.642L-508.658 679.091L-492.345 719.466M-343.917 151.084L-349.806 143.32M355.826 691.512L342.774 727.23M355.826 691.512L356.638 688.406M356.638 688.406H380.29L421.066 630.947V624.734L390.076 567.276M383.555 576.595L390.076 567.276M383.555 576.595L352.56 570.382M329.727 770.712L339.978 736.549L360.717 744.313M329.727 770.712L342.774 727.23M390.076 567.276L362.347 562.618M352.56 570.382L362.347 562.618M362.347 562.618L344.408 464.78L362.347 453.909V379.367L306.893 323.464L300.367 326.051M-492.345 719.466L-489.898 726.09M-492.345 719.466C-494.24 720.321 -496.482 721.348 -498.871 722.455M-349.806 143.32L-354.517 137.107M-349.806 143.32L-392.85 172.825L-418.944 149.533L-480.929 169.723L-492.345 228.732L-474.403 250.473L-529.861 352.969L-559.221 346.756L-604.893 390.238L-582.055 450.807L-555.96 455.465L-544.539 567.276L-572.268 578.146L-585.319 637.16L-551.064 688.406H-513.549L-498.871 722.455M-522.816 734.994L-520.075 741.383M-522.816 734.994C-523.143 734.235 -514.605 729.905 -505.728 725.679M-354.517 137.107L-392.85 157.297L-415.684 139.975L-490.715 165.061L-505.393 231.839L-485.82 252.029L-536.387 343.65L-562.481 335.886L-617.94 390.238L-591.841 458.571L-564.112 464.78L-557.59 561.063L-583.685 568.831L-598.367 637.16L-554.325 697.725H-516.814L-505.728 725.679M-520.075 741.383L-502.132 783.138L-520.075 797.114L-516.814 907.374L-420.579 964.833L-399.371 950.856L-319.449 1028.5L-330.866 1051.8L-259.099 1131L-175.912 1101.49L-164.495 1075.09L-112.301 1073.54L-89.4635 1089.07L-38.9004 1092.18L-84.5722 1081.31L-102.515 1061.12L-171.021 1064.22L-182.437 1095.28L-259.099 1121.68L-319.449 1051.8L-306.401 1026.95L-396.111 932.221L-420.579 946.198L-502.132 901.161L-505.393 803.327L-480.929 783.138L-504.58 733.531M-520.075 741.383L-504.58 733.531M-520.075 741.383L-489.898 726.09M-505.728 725.679C-503.414 724.576 -501.08 723.478 -498.871 722.455M-489.898 726.09L-495.606 728.982M-489.898 726.09L-489.085 725.679L-458.091 789.35L-485.82 809.536L-480.929 888.74L-418.944 922.902L-396.111 907.374L-283.563 1019.19L-294.985 1051.8L-259.099 1098.38L-195.485 1078.2L-188.963 1044.03H-89.4635L-74.7858 1064.22L-30.7443 1075.09L-33.192 1083.63M-504.58 733.531L-495.606 728.982M-495.606 728.982L-469.512 786.244L-495.606 806.43L-489.085 894.948L-420.579 932.221L-396.111 918.245L-294.985 1022.29L-306.401 1051.8L-259.099 1110.81L-188.963 1085.96L-179.177 1051.8L-99.25 1050.25L-79.6769 1070.44L-33.192 1083.63M-33.192 1083.63L-35.6396 1092.18M-178.906 679.326L-201.215 692.075L-200.081 695.806L-290.622 751.46L-275.789 774L-162.622 706.843L-178.906 679.326ZM-178.906 679.326L-208.055 633L-231.017 646.37L-202.244 692.348L-178.906 679.326ZM102.607 433.093L138.378 409.72L117.24 377L79.8391 400.374M102.607 433.093L86.3447 409.72M102.607 433.093L96.1013 436.875M79.8391 400.374L86.3447 409.72M79.8391 400.374L57.0751 414.393M86.3447 409.72L61.9513 423.743M96.1013 436.875L57.0751 459.58M96.1013 436.875L91.221 426.86L68.4571 440.883L65.2062 437.766L48.9439 448.673M57.0751 414.393L40.8128 423.743M57.0751 414.393L61.9513 423.743M61.9513 423.743L47.3185 433.093M57.0751 459.58L-4.71918 496.977M57.0751 459.58L48.9439 448.673M48.9439 448.673L40.8128 437.766L47.3185 433.093M40.8128 423.743L47.3185 433.093M40.8128 423.743L18.0488 437.766M-4.71918 496.977L-27.4831 511L-32.3594 503.446M-4.71918 496.977L-10.1385 489.183M-32.3594 503.446L-48.6217 478.276L-27.4831 464.253M-32.3594 503.446L-10.1385 489.183M-10.1385 489.183L-27.4831 464.253M-27.4831 464.253L-16.1011 457.502M-16.1011 457.502L-11.2208 462.696L19.6742 444L18.0488 437.766M-16.1011 457.502L18.0488 437.766M227.148 904.024L205.945 872.967L210.84 869.861M227.148 904.024V894.706L248.354 882.286L252.78 888.498M227.148 904.024L252.78 888.498M210.84 869.861L240.198 851.228L251.615 866.755M210.84 869.861L214.101 876.073L240.198 863.653L248.354 869.861L251.615 866.755M252.78 888.498L263.031 882.286L251.615 866.755M305.437 727.004L323.378 685.077V678.869L316.857 668L294.02 679.821M305.437 727.004L289.129 723.898M305.437 727.004L311.962 695.947M294.02 679.821L316.857 688.184L311.962 695.947M294.02 679.821L256.875 699.053M289.129 723.898L274.448 731.665M289.129 723.898V711.478L300.545 699.053L311.962 695.947M289.129 723.898L279.343 719.241H271.187M256.875 699.053L258.14 707.692L271.187 719.241M256.875 699.053L240.198 707.692M274.448 731.665L298.915 739.429L284.234 787.563L267.926 786.012M274.448 731.665L244.44 748.743M274.448 731.665L258.14 730.11M271.187 719.241L258.14 723.898L251.615 713.029L240.198 707.692M267.926 786.012L253.245 762.718M267.926 786.012L282.604 779.8L279.343 768.931L289.129 762.718L279.343 748.743L253.245 762.718M244.44 748.743L240.525 742.535M244.44 748.743L253.245 762.718M258.14 730.11L238.036 727.004M258.14 730.11L240.525 742.535M240.198 707.692L223.887 716.135L236.934 736.842M240.198 707.692L238.036 727.004M240.525 742.535L236.934 736.842M238.036 727.004L236.934 736.842M78.7254 890.577L95.037 918L140.703 891.6L127.656 871.873M78.7254 890.577L86.8812 885.392L101.558 904.024L127.656 890.577L119.5 877.629L127.656 871.873M78.7254 890.577L75.6408 885.392M127.656 871.873L123.578 865.707M75.6408 885.392L95.037 873.961M75.6408 885.392L67.5981 871.873M123.578 865.707L119.5 859.541M123.578 865.707L98.2976 880.731L95.037 873.961M95.037 873.961L119.5 859.541M67.5981 871.873L75.6408 865.707L72.1999 859.541L61.7852 862.098M67.5981 871.873L61.7852 862.098M119.5 859.541L114.609 852.142M61.7852 862.098L55.8631 852.142M114.609 852.142L108.084 855.886L111.344 862.098M114.609 852.142L111.344 847.209M111.344 847.209L98.2976 855.886L91.7722 845.016L104.76 837.253M111.344 847.209L104.76 837.253M104.76 837.253L98.2976 827.482M98.2976 827.482L55.8631 852.142M98.2976 827.482L91.7722 817.614M55.8631 852.142L37.1208 820.628M91.7722 817.614L77.9081 796.651M91.7722 817.614L80.3558 823.277L67.5981 802.713M37.1208 820.628L24.8996 800.084M37.1208 820.628L46.1064 815.351M24.8996 800.084L18.3783 789.118L37.9506 777.469M24.8996 800.084L33.0554 793.775L46.1064 815.351M46.1064 815.351L67.5981 802.713M77.9081 796.651L67.5981 802.713M77.9081 796.651L73.8763 790.556M37.9506 777.469L57.5229 765.824L69.8446 784.457M37.9506 777.469L44.4761 784.457L52.6277 793.775L69.8446 784.457M73.8763 790.556L69.8446 784.457M73.8763 790.556L46.1064 804.645L49.367 810.857M-34.1122 574.457L-48.8255 580.671L-68.4458 549.605L-55.3671 543.395V552.712L-43.9224 558.926L-39.0152 566.692M-34.1122 574.457L-39.0152 566.692M-34.1122 574.457L-7.95038 558.926L-29.2051 526.308L-48.8255 537.181L-43.9224 543.395H-34.1122L-22.6635 552.712L-39.0152 566.692M-42.2839 694.06L-9.58478 673.866M-42.2839 694.06L-6.31604 748.423M-42.2839 694.06L-86.4319 625.717L-53.7327 603.972L-9.58478 673.866M-9.58478 673.866L24.7488 729.785M-6.31604 748.423L24.7488 729.785M-6.31604 748.423L1.85974 751.53L13.3043 768.617L19.8458 763.958L26.3874 770.168M-6.31604 748.423L13.3043 777.938L26.3874 770.168M24.7488 729.785L44.3692 759.295L26.3874 770.168M24.7488 729.785L34.559 751.53L24.7488 759.295L26.3874 770.168M-300.622 284L-281.001 310.404M-281.001 310.404L-269.557 327.49L-243.395 311.959L-254.839 294.873L-281.001 310.404ZM-104.702 966.18L-37.7424 927.319L-58.9726 894.677L-125.932 935.094M-104.702 966.18L-111.073 956.856M-104.702 966.18L-138.996 987.941L-156.962 963.07M-125.932 935.094L-161.863 956.856L-156.962 963.07M-125.932 935.094L-111.073 956.856M-111.073 956.856L-135.731 973.955L-147.163 956.856L-156.962 963.07M85.2082 930.526L147.305 897.891L181.625 947.622L133.637 974.043M85.2082 930.526L43.1874 953.839M85.2082 930.526L116.404 977.148M133.637 974.043L119.524 981.813M133.637 974.043L127.695 966.27L121.157 969.378L96.6467 933.635L142.405 908.77L147.305 918.096V925.865H153.843L165.281 941.404V953.839L157.11 944.513L127.695 961.609L133.637 974.043ZM43.1874 953.839L26.3783 963.165L31.1863 970.935M43.1874 953.839L47.6217 961.609L31.1863 970.935M116.404 977.148L119.524 981.813M116.404 977.148L103.185 984.922L99.9135 981.813L88.4751 988.03L91.7421 997.52M119.524 981.813L91.7421 997.52M31.1863 970.935L46.5635 995.8M91.7421 997.52L75.4031 1006.76M75.4031 1006.76L59.0601 1016L46.5635 995.8M75.4031 1006.76L68.8652 995.8L57.4268 1002.01L52.5222 992.691L46.5635 995.8M122.795 831.065L129.328 817.083L121.157 801.539L108.085 809.309L122.795 831.065ZM122.795 831.065L133.213 846.609M133.213 846.609L140.397 841.944M133.213 846.609L140.397 857.323M140.397 841.944L171.538 821.743M140.397 841.944L147.305 852.826M140.397 857.323L147.305 852.826M140.397 857.323L145.718 865.257M147.305 786L153.843 795.641M153.843 795.641L144.038 799.987L137.5 792.217M153.843 795.641L147.305 804.648L150.572 809.309L160.054 804.807M153.843 795.641L160.054 804.807M160.054 804.807L166.272 813.974M129.328 838.839L166.272 813.974M166.272 813.974L171.538 821.743M171.538 821.743L188.394 846.609M188.394 846.609L181.625 852.826L193.063 869.917L201.041 865.257M188.394 846.609L201.041 865.257M147.305 852.826L170.182 840.391L173.453 845.052L150.572 861.72M145.718 865.257L150.572 861.72M145.718 865.257L156.14 880.796M201.041 865.257L204.388 870.194M150.572 861.72L158.743 866.809L178.353 855.931L181.625 862.148L156.14 880.796M156.14 880.796L162.392 890.122M162.392 890.122L171.538 883.904L173.453 890.122L194.696 877.691L197.963 883.904M162.392 890.122L170.182 901.742M197.963 883.904L189.792 889.153M197.963 883.904L209.406 877.595M170.182 901.742L189.792 889.153M170.182 901.742L184.278 922.756M189.792 889.153L206.135 894.783L209.406 904.109L206.135 911.878L184.278 922.756M209.406 877.595L227.378 904.109L214.306 911.878L220.844 922.756L194.696 938.3L184.278 922.756M209.406 877.595L207.735 875.132M207.735 875.132L201.041 877.691L197.963 873.026L204.388 870.194M207.735 875.132L204.388 870.194M27.8659 621.459L-1.53998 575L-37.4819 595.134L-14.6121 630.753M27.8659 621.459L22.9628 624.557L24.5957 627.655L16.431 633.85L9.89496 630.753L3.35889 633.85M27.8659 621.459L57.2717 664.824M-14.6121 630.753L-8.07599 624.557L3.35889 633.85M-14.6121 630.753L22.9628 684.954M3.35889 633.85L31.01 664.824M57.2717 664.824L48.2841 669.469M57.2717 664.824L61.6836 671.016M22.9628 684.954L39.3008 674.114M22.9628 684.954L27.8659 692.759M31.01 664.824L39.3008 674.114M31.01 664.824L48.2841 669.469M48.2841 669.469L39.3008 674.114M61.6836 671.016L57.2717 677.212L68.7066 691.15L74.9151 689.603M61.6836 671.016L74.9151 689.603M27.8659 692.759L34.3977 689.603L42.5667 701.99L36.5806 706.635M27.8659 692.759L36.5806 706.635M36.5806 706.635L42.5667 716.175M74.9151 689.603L77.1652 692.759M42.5667 716.175L50.1899 728.319M42.5667 716.175L52.3687 710.652M50.1899 728.319L63.8035 750L86.3501 736.062M50.1899 728.319L57.2717 723.671L67.0736 736.062L78.5085 728.319L86.3501 736.062M52.3687 710.652L67.0736 710.711L71.9725 706.635V698.892M52.3687 710.652L54.0015 709.732L52.3687 701.534L62.1705 695.794L71.9725 698.892M86.3501 736.062L89.9434 733.842M89.9434 733.842L101.378 726.768L96.9706 720.573M89.9434 733.842L86.3501 726.768L96.9706 720.573M96.9706 720.573L89.9434 710.711M89.9434 710.711L83.4073 712.83L78.5085 706.635L83.4073 701.534M89.9434 710.711L83.4073 701.534M83.4073 701.534L77.1652 692.759M77.1652 692.759L71.9725 698.892M-21.6217 341.758L63.6578 292L81.3783 319.003L-2.35663 370L-21.6217 341.758ZM92.5393 332L4.3783 384.874L22.2215 412L110.378 359.126L92.5393 332ZM-51.6217 297.503L33.3007 247L55.3783 277.726L-31.6631 329L-51.6217 297.503ZM181.536 464L93.3783 516.878L111.221 544L199.378 491.126L181.536 464ZM209.708 507L122.378 559.217L140.049 586L227.378 533.787L209.708 507ZM235.707 551L148.378 603.211L166.05 630L253.378 577.784L235.707 551ZM265.703 591L178.378 643.215L196.049 670L283.378 617.784L265.703 591ZM288.703 626L201.378 678.876L219.053 706L306.378 653.124L288.703 626ZM79.9159 523L51.3783 540.228L152.845 695L181.378 677.771L79.9159 523ZM36.9116 547L8.3783 564.329L109.845 720L138.378 702.671L36.9116 547ZM-139.865 655L-168.622 672.229L-66.3746 827L-37.6217 809.771L-139.865 655ZM-108.111 330L-129.622 343.024L-53.1326 460L-31.6217 446.98L-108.111 330ZM-70.1075 307L-91.6217 320.023L-15.1358 437L6.3783 423.977L-70.1075 307ZM-12.8267 998.64L-9.57623 1003.3L19.6909 986.995L14.8151 981.564L-12.8267 998.64ZM-55.1042 992.43L-50.2241 998.64L-43.7231 995.535L-46.9737 990.875H-55.1042V992.43ZM-37.218 838.749L-32.3381 844.955L-9.57623 829.433L-14.4561 824.777L-37.218 838.749ZM-7.95093 821.672L-3.07098 827.883L12.7471 817.012L6.68463 810.806L-7.95093 821.672ZM29.4465 851.165L32.6971 855.821L40.8276 851.165L37.577 844.955L29.4465 851.165ZM5.05951 889.677L12.7471 903.946L19.6909 899.29L12.7471 886.241L5.05951 889.677ZM1.80475 914.812L5.05951 921.483L14.8151 916.279L11.5605 910.156L1.80475 914.812ZM-69.7355 630.732V622.971L-61.6052 618.316L-55.1042 621.421L-50.2241 618.316L-59.9799 609L-87.6217 626.077L-79.4912 636.943L-69.7355 630.732ZM-163.622 210.681L-140.002 194L-76.6217 292.767L-98.7481 307L-163.622 210.681ZM-205.622 234.556L-179.249 218L-113.622 315.279L-142.588 334L-205.622 234.556ZM-259.622 261.859L-221.232 238L-155.622 340.855L-192.165 363L-259.622 261.859ZM-62.4669 152L-123.622 188.945L-58.7723 287L2.3783 250.055L-62.4669 152ZM-40.0019 137L-54.6217 145.774L10.7585 245L25.3783 236.222L-40.0019 137ZM-271.016 268L-348.622 312.693L-283.228 416L-205.622 371.307L-271.016 268ZM-236.912 127L-264.622 143.018L-215.335 218L-187.622 201.982L-236.912 127ZM-195.272 102L-222.622 118.018L-173.971 193L-146.622 176.982L-195.272 102ZM147.717 709L121.378 724.928L215.036 868L241.378 852.072L147.717 709ZM167.378 703.937L188.963 690.881L269.03 813.78L246.193 826.222L167.378 703.937ZM288.603 818.445L301.65 837.111L316.331 826.222L304.915 812.222L288.603 818.445ZM304.915 844.888L309.806 833.999H322.853L319.592 844.888H304.915ZM304.915 631.781L317.962 624L321.222 630.223L317.962 634.889L324.487 642.67L317.962 647.335L304.915 631.781ZM-182.622 377.075L-146.527 355L-90.6217 438.935L-125.028 460L-182.622 377.075ZM-362.773 320L-388.622 335.377L-321.475 440L-295.622 424.623L-362.773 320ZM-334.622 445.553L-350.224 422L-465.622 490.443L-450.015 514L-334.622 445.553ZM-358.622 407.809L-374.228 384L-489.622 453.187L-474.015 477L-358.622 407.809ZM-401.482 341L-381.622 372.655L-497.271 441L-517.622 409.81L-401.482 341ZM-247.622 327.204L-240.698 338L-230.622 332.308L-237.918 321L-247.622 327.204ZM-224.622 367.323L-218.059 379L-205.622 371.744L-212.959 360L-224.622 367.323ZM-231.622 351.091L-222.59 364L-214.622 359.138L-222.446 346L-231.622 351.091ZM-338.622 335.976L-332.572 345L-324.622 340.024L-330.03 331L-338.622 335.976ZM-175.622 384.92L-167.217 378L-161.622 384.689L-170.178 392L-175.622 384.92ZM-158.625 390L-153.622 394.687L-163.516 404L-168.622 397.064L-158.625 390ZM-145.622 429.885L-136.049 424L-131.446 428.217L-130.622 431.786L-140.216 438L-145.622 429.885ZM-124.622 460.068L-106.441 489L-69.6217 467.352L-90.4906 439L-124.622 460.068ZM-117.622 476.494L-110.293 472L-100.622 485.743L-108.07 490L-117.622 476.494ZM-449.622 247.947L-399.376 323L-372.622 309.354L-427.437 225L-437.876 231.204L-438.529 239.885L-449.622 247.947ZM-421.622 206.448L-360.465 302L-330.622 285.353L-394.2 189L-421.622 206.448ZM103.378 327.533L122.39 355L192.378 311.84L174.348 285L103.378 327.533ZM222.206 378L241.378 406.842L184.034 442L164.378 413.166L222.206 378ZM187.378 458.23L206.043 487L264.378 453.203L245.126 424L187.378 458.23ZM216.378 498.532L237.134 529L288.378 499.157L269.894 469L216.378 498.532ZM272.638 544.223L279.164 539.322L282.424 543.984L275.899 548.641L272.638 544.223ZM284.055 602.993L290.581 598.336L295.472 604.549L290.581 609.206L284.055 602.993ZM282.424 888.74V879.42L274.268 884.078L282.424 888.74ZM318.31 888.74L323.201 893.397L329.727 888.74L326.466 880.972L318.31 888.74ZM298.737 874.763L301.997 880.972L313.414 874.763L308.523 870.101L298.737 874.763ZM-249.313 1068.88L-242.787 1082.86L-223.214 1075.09L-229.74 1059.56L-247.682 1068.88H-249.313ZM-241.157 1070.44L-239.526 1073.54L-229.74 1070.44L-231.37 1067.33L-241.157 1070.44ZM317.583 561L332.378 581.876L289.288 609L272.378 586.907L317.583 561ZM297.378 620.2L317.161 647L357.378 621.882L339.394 596L297.378 620.2ZM261.453 414L281.378 440.721L264.029 453L245.378 424.438L261.453 414ZM269.378 468.99L287.98 499L307.378 486.16L289.1 456L269.378 468.99ZM314.105 542L326.378 535.677L319.69 502L294.378 513.25L314.105 542ZM317.378 560.249L329.988 552L337.378 578.658L332.323 582L317.378 560.249ZM-304.622 628.392L-283.887 660L-212.622 618.47L-233.352 585L-304.622 628.392ZM-192.622 620.496L-172.833 651L-129.622 625.28L-148.502 595L-192.622 620.496ZM-163.622 125.325L-128.883 113L-88.7382 114.406L-84.8058 120.954L-73.9939 115.025L-66.6217 125.793L-133.472 169L-163.622 125.325ZM-177.622 103L-128.622 112.93L-163.251 125L-177.622 103ZM-235.622 98.2023L-223.163 118L-195.622 102.027L-208.231 82L-235.622 98.2023ZM-255.992 69L-256.622 82.2482L-247.35 83L-245.622 70.5037L-255.992 69ZM-252.622 51.4701L-251.798 59L-240.622 58.8433L-240.786 51L-252.622 51.4701ZM-269.622 58L-269.461 68H-257.782L-257.622 59.146L-269.622 58ZM-2.6217 71.676L3.09644 77.2744L6.31555 73.6416L12.3564 80L16.3783 75.3088L6.71686 66L-2.6217 71.676ZM-278.622 123.468L-264.135 143L-236.622 126.801L-248.642 105L-278.622 123.468ZM-280.622 137.579L-275.159 145L-266.622 140.981L-271.193 133L-280.622 137.579ZM23.3783 212.013L35.0555 229L45.2676 222.752L35.7103 211.478L44.5332 206.752L52.7853 218.261L60.3783 214.37L47.8785 197L23.3783 212.013ZM55.9788 151L51.3783 159.384L81.973 172L87.3783 162.922L55.9788 151ZM-285.622 221.627L-267.983 248L-228.622 224.929L-246.055 198L-285.622 221.627ZM22.3783 497.859L41.7336 526L166.378 451.628L148.009 423L22.3783 497.859ZM8.3783 505.941L28.7852 533L42.3783 525.595L22.6957 498L8.3783 505.941ZM-20.6217 523.419L-0.550476 552L28.3783 533.53L8.37848 506L-20.6217 523.419ZM-112.622 452.433L-105.95 459L-85.6217 445.787L-90.7421 439L-112.622 452.433ZM241.538 407L255.378 398.848L234.275 369L222.378 378.228L241.538 407ZM179.378 337.006L201.565 371L226.378 356.365L205.015 323L179.378 337.006ZM125.378 367.085L151.095 402L201.378 370.67L179.265 337L125.378 367.085ZM131.346 375L143.378 367.585L138.556 360L125.378 367.136L131.346 375ZM167.378 343.807L173.055 351L184.378 344.283L179.588 337L167.378 343.807ZM176.378 348.323L181.605 357L189.378 352.444L183.752 344L176.378 348.323ZM227.378 327.603L235.403 338L246.378 330.862L239.01 320L227.378 327.603ZM252.378 355.034L267 378L275.378 371.947L261.251 351L252.378 355.034ZM206.378 297.642L210.25 302L222.378 295.274L219.28 290L206.378 297.642ZM159.378 275.46L166.34 283L181.378 271.853L174.254 264L159.378 275.46ZM190.378 259.049L196.084 268L203.378 262.63L198.304 254L190.378 259.049ZM163.378 254.735L169.086 261L176.378 255.655L171.783 250L163.378 254.735ZM192.378 232.076L198.209 240.058L203.554 235.52L207.117 241L215.378 234.738L205.335 223L192.378 232.076ZM139.378 198.216L157.155 214L163.378 208.687L145.758 192L139.378 198.216ZM127.378 201.456L148.35 179L175.378 204.555L153.426 225L127.378 201.456ZM118.378 201.709L148.521 169L187.378 206.22L155.822 236L118.378 201.709ZM78.3783 287.738L98.7027 308L117.378 288.291L98.2926 270L78.3783 287.738ZM92.3783 285.399L99.6906 292L105.378 289.641L103.424 281L92.3783 285.399ZM85.3783 290.337L89.5187 295L95.3783 288.906L92.1697 286L85.3783 290.337ZM98.5474 301L99.3783 292.519L96.5175 290L91.3783 296.289L98.5474 301ZM-93.6217 472.986L-88.1292 481L-67.6217 468.701L-72.8698 461L-93.6217 472.986ZM183.378 375.013L185.369 381L201.378 370.726L197.725 365L183.378 375.013ZM65.0952 271L127.378 236.122L104.639 200L40.3783 237.366L65.0952 271ZM46.3783 245.44L53.3505 241L66.3783 260.316L60.1259 265L46.3783 245.44ZM70.3783 256.037L76.0746 265L105.378 248.819L98.5779 240L70.3783 256.037ZM55.3783 229.174L61.4384 238L81.3783 225.315L76.0363 217L55.3783 229.174ZM90.3783 222.592L101.216 238L109.378 232.572L99.1178 217L90.3783 222.592ZM85.3783 212.589L89.907 218L99.3783 212.666L95.5218 207L85.3783 212.589ZM-483.622 423.49L-469.289 414L-464.622 421.308L-479.032 430L-483.622 423.49ZM-502.622 433.489L-492.098 428L-487.622 435.1L-497.684 441L-502.622 433.489ZM-98.6217 506.949L-57.5722 481L-35.6217 513.173L-75.933 539L-98.6217 506.949ZM-91.1708 502L-68.6217 534.249L-75.9763 539L-98.6217 506.746L-91.1708 502ZM-65.6217 485.817L-47.4946 510.614L-52.77 514.137L-47.3547 520L-35.6217 512.673L-57.7996 481L-65.6217 485.817ZM-65.6217 512.582L-61.1215 519L-54.6217 516.611L-58.788 509L-65.6217 512.582ZM-71.6217 503.259L-66.4731 508L-59.6217 503.788L-64.4183 499L-71.6217 503.259ZM-538.622 374.633L-500.646 338.104L-431.08 298L-410.622 329.867L-522.088 396L-538.622 374.633ZM-463.888 267.794L-455.404 263L-437.622 289.762L-487.38 319L-491.622 314.055L-463.888 267.794ZM-571.622 390.991L-564.453 390L-557.622 419.4L-565.475 421L-571.622 390.991ZM-569.622 371.332L-565.323 377L-553.622 370.198L-556.247 364L-569.622 371.332ZM-546.622 424.89L-534.898 462L-510.622 448.905L-529.776 416L-546.622 424.89ZM-530.622 493.261L-520.747 506L-485.622 483.633L-502.941 458L-530.297 471.515L-530.622 493.261ZM-524.622 521.088L-518.924 529.182L-519.903 536.653L-522.505 542.103L-514.042 553L-461.622 519.995L-478.225 494L-524.622 521.088ZM-518.622 571.232L-490.374 601L-430.622 565.184L-446.537 542.394L-454.489 550.3L-460.988 550.145L-467.968 541L-518.622 571.232ZM-461.622 540.343L-458.119 546L-451.951 545.192L-451.622 536.135L-457.956 535L-461.622 540.343ZM-507.986 629.327L-504.231 635.644L-509.622 639.81L-495.908 660L-405.622 605.895L-421.79 580L-507.986 629.327ZM-552.96 589.467L-546.291 589L-551.46 635.745L-529.622 662.393L-534.791 668L-560.622 639.641L-552.96 589.467ZM-441.622 524.99L-391.737 600L-356.622 579.7L-405.027 505L-441.622 524.99ZM-389.296 529L-399.622 534.675L-366.77 586L-356.622 580.057L-389.296 529ZM-314.622 451.865L-275.954 506.88L-266.123 501.905L-299.22 455.284L-200.909 396.854L-172.068 441.918L-180.59 448.135L-171.411 458.703L-164.531 453.111L-137.989 493.514L-232.697 552.88L-263.5 507.811L-273.659 511.851L-235.316 565L-120.622 497.554L-155.681 447.514L-154.7 443.164L-159.614 435.084L-164.203 434.149L-196.976 381L-314.622 451.865ZM-215.622 503.44L-211.16 495L-193.622 504.376L-198.722 515L-215.622 503.44ZM-236.622 487.355L-229.505 497L-214.622 488.287L-227.239 469L-234.68 472.112L-230.797 481.757L-236.622 487.355ZM-396.622 496.7L-388.723 507L-318.622 466.429L-325.535 458L-396.622 496.7ZM-323.622 544.359L-319.163 550L-288.622 532.433L-291.757 526L-323.622 544.359ZM-323.622 553.118L-318.853 558L-287.622 538.307L-290.971 533L-323.622 553.118ZM-279.622 534.535L-263.833 557L-258.622 553.461L-274.084 531L-279.622 534.535ZM-285.805 529L-278.622 523.568L-281.126 520L-288.622 524.033L-285.805 529ZM-279.152 526L-285.622 530.827L-283.372 534L-276.622 530.412L-279.152 526ZM-322.622 606.404L-317.693 614L-247.622 573.503L-253.273 564L-322.622 606.404ZM-279.622 515.987L-276.173 513L-237.622 566.6L-243.363 571L-279.622 515.987ZM-322.622 454.924L-317.679 452L-277.622 508.308L-282.404 512L-322.622 454.924ZM-481.622 211L-470.913 209.77L-470.507 205.305L-477.513 204.769L-477.351 202.153L-469.944 202.078L-469.622 195.922L-479.569 195L-481.622 211ZM-373.336 175L-357.622 199.49L-365.918 205L-382.622 181.16L-373.336 175ZM-356.622 166.316L-339.34 190L-330.622 184.836L-347.252 161L-356.622 166.316ZM-373.622 175.183L-357.154 166L-339.622 190.553L-357.971 200L-373.622 175.183ZM-344.622 208.376L-338.221 215L-328.622 208.376L-334.516 201L-344.622 208.376ZM-365.622 205.134L-318.705 278L-281.622 255.918L-330.419 185L-365.622 205.134ZM-339.622 246.426L-327.957 240L-324.622 245.872L-334.203 253L-339.622 246.426ZM-330.622 258.46L-322.897 253L-314.622 263.167L-324.461 269L-330.622 258.46ZM-305.622 240.111L-296.86 234L-281.622 256.245L-291.242 262L-305.622 240.111ZM-307.622 288.649L-277.571 332L-243.622 312.454L-271.763 268L-307.622 288.649ZM-290.622 287.86L-279.492 302L-264.622 292.842L-276.55 278L-290.622 287.86ZM-203.622 562.852L-195.767 572.591L-191.187 569.763L-180.876 586.412L-186.44 591.123L-182.411 599L-167.622 589.868L-189.711 555L-203.622 562.852ZM-225.622 575.322L-202.91 611L-167.622 589.438L-189.674 555L-225.622 575.322ZM-156.092 534L-133.622 569.712L-147.334 578L-148.82 565.131L-158.733 550.593L-165.342 549.331L-169.622 543.261L-156.092 534ZM-169.248 544L-189.622 555.662L-167.983 590L-147.622 578.004L-149.063 565.407L-158.682 551.178L-165.096 549.942L-169.248 544ZM-178.622 560.828L-167.517 578L-157.622 571.713L-168.822 555L-178.622 560.828ZM-101.622 610.018L-129.513 625L-148.622 595.049L-122.473 580L-101.622 610.018ZM-125.622 597.345L-118.993 608L-107.622 601.483L-115.086 590L-125.622 597.345ZM-122.175 580L-125.622 598L-115.622 590.643L-122.175 580ZM-250.622 1006.68L-228.164 1041L-153.622 994.512L-174.453 963L-250.622 1006.68ZM-283.664 974.483L-285.622 966.105L-202.749 918L-177.622 952.449L-254.299 999L-283.664 974.483ZM-322.622 931.318L-306.075 951L-292.972 941.856L-285.602 944.027L-280.357 939.843L-272.823 946.043L-207.622 907.148L-228.268 876L-322.622 931.318ZM-326.977 923L-234.622 867.87L-254.167 836L-355.647 895.039L-356.622 900.815L-326.977 923ZM-301.622 953.75L-295.134 961L-286.622 953.75L-292.705 948L-301.622 953.75ZM-287.622 948.263L-283.483 953L-276.622 949.052L-281.371 944L-287.622 948.263ZM-254.622 860.596L-245.108 874L-234.622 867.599L-243.196 854L-254.622 860.596ZM-450.622 883.073L-445.932 875L-407.622 902.478L-413.441 909L-450.622 883.073ZM-467.622 847.48L-459.985 844L-449.622 872.152L-457.097 875L-467.622 847.48ZM-472.622 816L-471.23 831.552L-461.622 832L-463.022 816.448L-472.622 816ZM-280.909 795L-260.622 825.767L-379.72 896L-402.622 865.233L-280.909 795ZM-409.217 848L-377.864 828.832L-369.698 831.307L-363.493 827.597L-362.838 819.556L-315.159 792.35L-308.953 796.987L-295.236 788.019L-296.541 783.073L-292.622 780.753L-311.395 752L-429.622 819.71L-409.217 848ZM-445.622 773.19L-438.479 810L-319.622 738.882L-337.483 708L-445.622 773.19ZM-349.622 715.626L-343.68 724L-331.622 717.509L-337.076 708L-349.622 715.626ZM-334.622 730.241L-326.497 743L-319.622 738.812L-327.461 725L-334.622 730.241ZM-470.622 722.144L-445.106 755L-347.622 697.11L-368.232 663L-470.622 722.144ZM-484.622 702.367L-478.952 709L-469.622 703.948L-474.289 697L-484.622 702.367ZM-468.622 696.854L-464.122 701L-457.622 697.594L-462.126 693L-468.622 696.854ZM-492.622 670.627L-480.687 695L-464.829 686.774L-461.561 689.414L-457.474 687.704L-453.878 693.294L-432.622 679.323L-441.124 665.041L-447.988 665.972L-458.125 652L-492.622 670.627ZM-400.622 660.524L-434.063 680L-441.728 665.306L-448.549 666.23L-458.622 652.355L-422.229 630L-400.622 660.524ZM-398.986 616L-378.622 648.386L-400.124 661L-421.622 630.169L-398.986 616ZM-391.622 643.222L-385.867 652L-378.622 647.9L-384.426 639L-391.622 643.222ZM-387.622 607.292L-364.97 640L-325.622 617.938L-348.435 586L-387.622 607.292ZM-364.787 616.509L-360.62 621L-355.622 617.667L-360.119 611L-365.622 615.057L-364.787 616.509ZM-371.622 614.39L-365.088 624.377L-357.081 625L-346.622 618.134L-356.754 603L-369.661 608.147L-371.622 614.39ZM-337.622 602.175L-329.016 595L-323.622 600.642L-333.557 608L-337.622 602.175ZM-338.351 679.452L-338.838 673.568L-327.809 666.623L-325.218 670.548L-312.084 663L-304.622 669.639L-319.055 677.794L-317.922 681.718L-324.405 685.341L-334.622 687L-340.622 683.377L-338.351 679.452ZM-302.622 733.018L-290.561 752L-261.622 734.424L-275.279 717L-302.622 733.018ZM-308.622 724.316L-302.663 733L-284.622 722.012L-290.539 716L-308.622 724.316ZM-315.622 714.163L-308.477 724L-302.622 713.851L-304.952 709L-315.622 714.163ZM-325.622 701.193L-317.793 712L-312.622 695L-325.622 701.193ZM-296.544 685L-274.622 716.952L-302.564 733L-325.622 701.208L-296.544 685ZM-293.848 683.006L-230.649 647L-199.622 696.137L-261.361 734L-296.622 685.017L-293.848 683.006ZM-247.622 684.568L-230.784 709L-212.622 697.559L-219.227 688.125L-227.152 693.071L-237.389 679L-247.622 684.568ZM-262.622 664.474L-251.427 678L-241.622 671.119L-247.177 665.179L-241.949 661.738L-246.182 655L-262.622 664.474ZM-241.622 652.672L-238.198 658L-230.622 654.833L-234.638 649L-241.622 652.672ZM-292.622 682.154L-283.181 697L-277.089 693.993L-278.075 688.774L-269.672 682.919L-264.732 686.716L-259.622 683.397L-269.867 669L-292.622 682.154ZM-250.618 728L-256.622 721.591L-245.604 715L-239.622 721.359L-250.618 728ZM-295.622 206.743L-285.942 221L-246.622 197.778L-257.315 183L-295.622 206.743ZM-303.622 195.439L-295.609 207L-280.622 197.536L-287.433 187L-303.622 195.439ZM-304.622 182.541L-299.456 189L-291.622 184.078L-296.787 177L-304.622 182.541ZM-324.622 165.944L-314.729 181L-304.622 172.825L-313.608 159L-324.622 165.944ZM-334.622 151.802L-295.922 207L-257.622 182.638L-294.541 129L-334.622 151.802ZM-290.622 173.757L-286.687 179L-280.622 174.575L-284.556 169L-290.622 173.757ZM-272.622 182.252L-267.946 189L-257.622 182.484L-263.51 174L-272.622 182.252ZM-326.929 161L-319.622 156.138L-325.337 147L-333.622 151.624L-326.929 161ZM-312.305 139L-307.622 146.409L-320.591 155L-325.622 146.688L-312.305 139ZM146.378 395.78L169.77 381L174.378 387.307L151.382 402L146.378 395.78ZM-457.789 505L-449.622 500.447L-458.818 486L-467.622 491.091L-457.789 505ZM75.6408 873.961L78.7254 877.629L88.5115 871.416L83.6205 865.707L75.6408 873.961ZM-453.622 507.754L-442.209 501L-437.622 506.986L-449.686 514L-453.622 507.754ZM-438.622 498.194L-434.255 505L-421.622 497.265L-426.77 491L-438.622 498.194ZM-268.622 785.425L-246.089 818L-131.622 750.591L-151.94 717L-268.622 785.425ZM-124.038 647.463L-92.9734 695.611L-63.5428 678.529L-92.9734 630.376L-124.038 647.463ZM-60.27 743.764L-32.4738 726.678L5.12848 784.148L-22.6635 799.683L-60.27 743.764ZM13.3043 743.764L16.5772 748.423L23.1146 745.316V739.106L13.3043 743.764ZM88.5171 779.489L126.124 756.188L147.378 785.703L108.138 809L88.5171 779.489ZM-88.0662 708.04L-70.0801 734.443L-37.381 714.254L-53.7327 689.401L-88.0662 708.04ZM-76.6217 708.04L-66.8116 725.126L-47.1912 712.698L-52.0941 704.932L-63.5428 700.274L-76.6217 708.04ZM-217.387 858.926L-104.702 792.085L-125.932 761L-238.622 827.841L-217.387 858.926ZM-99.8006 801.413C-92.7253 811.257 -78.8976 830.946 -80.2028 830.946C-81.5121 830.946 -155.875 877.578 -192.892 900.896L-214.122 868.254L-99.8006 801.413ZM-86.7368 851.154L-62.2375 885.353L-165.128 945.975L-187.991 911.776L-86.7368 851.154ZM1.45319 939.756L12.8845 956.856L86.3783 919.548L74.947 900.896L1.45319 939.756ZM-1.81165 1050.12L6.35474 1061L30.8499 1045.46L22.6835 1034.58L-1.81165 1050.12ZM-312.953 227L-319.622 219.002L-312.953 211L-304.622 222.198L-312.953 227ZM-324.767 205L-331.622 195.665L-328.194 191L-319.622 201.888L-324.767 205ZM-63.6217 649.335L-58.7186 655.531L-40.7477 644.691L-45.6508 636.948L-63.6217 649.335ZM-57.0856 671.016L-50.5496 667.922L-44.0178 680.309C-45.105 682.375 -47.6112 686.196 -48.9167 684.954C-50.2265 683.717 -54.907 675.146 -57.0856 671.016ZM-45.6508 661.727L-32.5788 677.212L-14.6121 667.922L-26.0469 647.789L-45.6508 661.727ZM27.8659 655.531L34.3977 650.886L24.5957 638.495H14.7938L27.8659 655.531Z" stroke="#FEFEFE" stroke-opacity="0.24" stroke-width="2"/>
</svg>
