<svg width="44" height="45" viewBox="0 0 44 45" fill="none" xmlns="http://www.w3.org/2000/svg">
<g clip-path="url(#clip0_8_152)">
<path d="M33.7088 30.1641V33.8758C33.7072 34.5317 33.447 35.1604 32.9849 35.6242C32.5229 36.088 31.8967 36.3493 31.2433 36.3508H12.7568C12.1034 36.3493 11.4771 36.088 11.0151 35.6242C10.5531 35.1604 10.2928 34.5317 10.2913 33.8758V30.1641C10.2959 28.5247 10.9467 26.9538 12.1014 25.7946C13.2562 24.6354 14.821 23.9821 16.4541 23.9774H27.546C29.179 23.9821 30.7439 24.6354 31.8986 25.7946C33.0534 26.9538 33.7042 28.5247 33.7088 30.1641ZM15.7029 15.7982C15.7033 14.548 16.073 13.326 16.7651 12.2867C17.4573 11.2474 18.4409 10.4374 19.5916 9.95927C20.7423 9.48112 22.0083 9.35621 23.2297 9.60034C24.4511 9.84448 25.5729 10.4467 26.4534 11.3309C27.3339 12.215 27.9334 13.3414 28.1762 14.5676C28.4191 15.7938 28.2942 17.0647 27.8176 18.2197C27.3409 19.3747 26.5338 20.3619 25.4983 21.0564C24.4628 21.7509 23.2454 22.1216 22 22.1216C20.3299 22.1216 18.7282 21.4556 17.5473 20.2701C16.3664 19.0846 15.7029 17.4747 15.7029 15.7982Z" fill="white"/>
</g>
<defs>
<clipPath id="clip0_8_152">
<rect width="24" height="28" fill="white" transform="translate(10 9)"/>
</clipPath>
</defs>
</svg>
