<?xml version="1.0" encoding="UTF-8" standalone="no"?><svg xmlns:svg="http://www.w3.org/2000/svg" xmlns="http://www.w3.org/2000/svg" xmlns:xlink="http://www.w3.org/1999/xlink" version="1.0" width="64px" height="64px" viewBox="0 0 128 128" xml:space="preserve"><g><path d="M76.34 52.05l-43.6-43.6a63.42 63.42 0 0 1 29.7-8.2z" fill="#000"/><path d="M76.34 52.05l-43.6-43.6a63.42 63.42 0 0 1 29.7-8.2z" fill="#c4c4c4" transform="rotate(30 64 64)"/><path d="M76.34 52.05l-43.6-43.6a63.42 63.42 0 0 1 29.7-8.2z" fill="#b2b2b2" transform="rotate(60 64 64)"/><path d="M76.34 52.05l-43.6-43.6a63.42 63.42 0 0 1 29.7-8.2z" fill="#a1a1a1" transform="rotate(90 64 64)"/><path d="M76.34 52.05l-43.6-43.6a63.42 63.42 0 0 1 29.7-8.2z" fill="#8f8f8f" transform="rotate(120 64 64)"/><path d="M76.34 52.05l-43.6-43.6a63.42 63.42 0 0 1 29.7-8.2z" fill="#7d7d7d" transform="rotate(150 64 64)"/><path d="M76.34 52.05l-43.6-43.6a63.42 63.42 0 0 1 29.7-8.2z" fill="#6b6b6b" transform="rotate(180 64 64)"/><path d="M76.34 52.05l-43.6-43.6a63.42 63.42 0 0 1 29.7-8.2z" fill="#595959" transform="rotate(210 64 64)"/><path d="M76.34 52.05l-43.6-43.6a63.42 63.42 0 0 1 29.7-8.2z" fill="#474747" transform="rotate(240 64 64)"/><path d="M76.34 52.05l-43.6-43.6a63.42 63.42 0 0 1 29.7-8.2z" fill="#363636" transform="rotate(270 64 64)"/><path d="M76.34 52.05l-43.6-43.6a63.42 63.42 0 0 1 29.7-8.2z" fill="#242424" transform="rotate(300 64 64)"/><path d="M76.34 52.05l-43.6-43.6a63.42 63.42 0 0 1 29.7-8.2z" fill="#121212" transform="rotate(330 64 64)"/><animateTransform attributeName="transform" type="rotate" values="0 64 64;30 64 64;60 64 64;90 64 64;120 64 64;150 64 64;180 64 64;210 64 64;240 64 64;270 64 64;300 64 64;330 64 64" calcMode="discrete" dur="600ms" repeatCount="indefinite"></animateTransform></g></svg>