<svg width="44" height="45" viewBox="0 0 44 45" fill="none" xmlns="http://www.w3.org/2000/svg">
<path d="M21.9657 19.9771C23.3022 19.9771 24.3912 21.0672 24.3912 22.4026C24.3912 23.738 23.3011 24.7933 21.9657 24.7933C20.6304 24.7933 19.5751 23.738 19.5751 22.4026C19.5751 21.0672 20.6304 19.9771 21.9657 19.9771ZM21.9657 14C29.9116 14 35.6412 21.4531 35.6412 21.4531C36.0282 21.9459 36.0282 22.8245 35.6412 23.3161C35.6412 23.3161 29.9105 30.7693 21.9657 30.7693C14.021 30.7693 8.29025 23.3161 8.29025 23.3161C7.90325 22.8234 7.90325 21.9447 8.29025 21.4531C8.29025 21.4531 14.021 14 21.9657 14ZM21.9657 28.4146C25.271 28.4146 27.9777 25.7079 27.9777 22.4026C27.9777 19.0974 25.271 16.3906 21.9657 16.3906C18.6605 16.3906 15.9537 19.0974 15.9537 22.4026C15.9537 25.7079 18.6605 28.4146 21.9657 28.4146Z" fill="white"/>
</svg>
